<svg width="33" height="33" viewBox="0 0 33 33" fill="none" xmlns="http://www.w3.org/2000/svg">
<g clip-path="url(#clip0_2676_173)">
<path d="M11.5 13.0023V9.76906C15.1339 10.0253 18 13.0527 18 16.7532C18 17.937 17.7029 19.0456 17.1883 20.0283L17.0178 20.3539L17.2776 20.6138L19.1027 22.4392L19.5472 22.8838L19.8803 22.3506C20.8954 20.726 21.5 18.8158 21.5 16.7532C21.5 11.1185 17.0689 6.52341 11.5 6.26258V3V1.7927L10.6464 2.64649L5.64636 7.64768L5.29292 8.0012L5.64636 8.35471L10.6464 13.3558L11.5 14.2096V13.0023ZM10.5 20.5041V23.7373C6.86611 23.4811 4.00002 20.4537 4.00002 16.7532C4.00002 15.5694 4.29705 14.4607 4.8117 13.4781L4.98222 13.1525L4.72236 12.8926L2.89729 11.0672L2.4528 10.6226L2.11967 11.1557C1.10456 12.7803 0.5 14.6905 0.5 16.7532C0.5 22.3879 4.9311 26.983 10.5 27.2438V30.5064V31.7137L11.3536 30.8599L16.3536 25.8587L16.7071 25.5052L16.3536 25.1517L11.3536 20.1506L10.5 19.2968V20.5041Z" fill="#7597C6" stroke="#284161"/>
<circle cx="27" cy="27" r="6" fill="#D29E6E"/>
</g>
<defs>
<clipPath id="clip0_2676_173">
<rect width="33" height="33" fill="white"/>
</clipPath>
</defs>
</svg>
