<svg xmlns="http://www.w3.org/2000/svg" width="33" height="33" fill="none" viewBox="0 0 33 33">
    <g clip-path="url(#a)">
        <path d="M17 12.753V9.516a7 7 0 0 1 6.5 6.986 7 7 0 0 1-.812 3.275l-.17.325.26.26 1.825 1.826.444.445.333-.534A10.5 10.5 0 0 0 27 16.503c0-5.635-4.431-10.23-10-10.49V1.537l-.854.854-5 5.001-.353.354.353.354 5 5 .854.854zm-1 7.5v3.233a7 7 0 0 1-6.5-6.984 7 7 0 0 1 .812-3.275l.17-.327-.26-.26-1.825-1.825-.444-.444-.333.532a10.5 10.5 0 0 0-1.62 5.6c0 5.635 4.431 10.23 10 10.49v4.47l.854-.854 5-5.003.353-.353-.353-.354-5-5-.854-.854Z" style="fill:#90a1bb;fill-opacity:1;stroke:#1f324c;stroke-opacity:1"/>
    </g>
    <defs>
        <clipPath id="a">
            <path fill="#fff" d="M0 0h33v33H0z"/>
        </clipPath>
    </defs>
</svg>
