<svg xmlns="http://www.w3.org/2000/svg" width="33" height="33" fill="none" viewBox="0 0 33 33">
    <g clip-path="url(#a)">
        <path d="M17 12.748V9.516a7 7 0 0 1 6.5 6.983 7 7 0 0 1-.812 3.275l-.17.326.26.26 1.825 1.825.444.445.333-.533A10.5 10.5 0 0 0 27 16.5c0-5.635-4.431-10.23-10-10.49V1.54l-.854.853-5 5.002-.353.35.353.355 5 5 .854.854zm-1 7.502v3.233a7 7 0 0 1-6.5-6.984c0-1.184.297-2.292.812-3.275l.17-.326-.26-.26-1.825-1.825-.444-.445-.333.533A10.5 10.5 0 0 0 6 16.5c0 5.635 4.431 10.23 10 10.49v4.47l.854-.853 5-5.001.353-.354-.353-.353-5-5.001-.854-.854Z" style="fill:#d26e6e;fill-opacity:1;stroke:#1f324c;stroke-opacity:1"/>
    </g>
    <defs>
        <clipPath id="a">
            <path fill="#fff" d="M0 0h33v33H0z"/>
        </clipPath>
    </defs>
</svg>
