<?xml version="1.0" ?><!DOCTYPE svg  PUBLIC '-//W3C//DTD SVG 1.1//EN'  'http://www.w3.org/Graphics/SVG/1.1/DTD/svg11.dtd'><svg enable-background="new 0 0 34 34" height="34px" id="Layer_1" version="1.1" viewBox="0 0 34 34" width="34px" xml:space="preserve" xmlns="http://www.w3.org/2000/svg" xmlns:xlink="http://www.w3.org/1999/xlink"><g><path d="M17.123,9.2c-1.44,0-2.642,0.503-3.604,1.32S11.994,12,11.832,14h2.937c0.064-1,0.303-1.231,0.716-1.611   s0.926-0.618,1.541-0.618c0.615,0,1.116,0.174,1.504,0.571c0.389,0.396,0.583,0.882,0.583,1.48s-0.187,1.094-0.558,1.499   l-1.772,1.769c-0.518,0.518-0.626,0.934-0.78,1.249C15.849,18.654,16,19.133,16,19.78V21h2v-0.832c0-0.646,0.289-1.148,0.581-1.504   c0.112-0.129,0.333-0.287,0.521-0.473c0.186-0.187,0.448-0.405,0.715-0.656c0.267-0.25,0.5-0.457,0.662-0.619   c0.161-0.161,0.404-0.437,0.712-0.825c0.533-0.647,0.805-1.456,0.805-2.427c0-1.408-0.45-2.503-1.356-3.289   C19.732,9.592,18.563,9.2,17.123,9.2z" fill="#231F20"/><path d="M16.94,22.145c-0.51,0-0.946,0.179-1.311,0.534c-0.364,0.356-0.546,0.78-0.546,1.274   c0,0.493,0.186,0.914,0.558,1.262c0.372,0.348,0.813,0.521,1.322,0.521c0.51,0,0.947-0.178,1.311-0.533   c0.363-0.356,0.546-0.781,0.546-1.274s-0.187-0.914-0.559-1.263C17.891,22.318,17.45,22.145,16.94,22.145z" fill="#231F20"/><path d="M17,0C7.611,0,0,7.611,0,17s7.611,17,17,17s17-7.611,17-17S26.389,0,17,0z M17,31C9.268,31,3,24.732,3,17   C3,9.268,9.268,3,17,3c7.732,0,14,6.268,14,14C31,24.732,24.732,31,17,31z" fill="#231F20"/></g></svg>