<svg width="33" height="33" viewBox="0 0 33 33" fill="none" xmlns="http://www.w3.org/2000/svg">
<path d="M22.2727 19.5372L20.516 17.7805H16.3477V22.1276L18.0746 23.8842V19.5372H22.2727Z" fill="#176FC1"/>
<path d="M16.9415 24.9559C16.3163 25.1048 15.6612 25.1941 14.9764 25.1941C10.0935 25.1941 5.95484 21.1746 5.95484 15.9939C5.95484 10.8132 10.0339 6.91274 14.9467 6.91274C19.8594 6.91274 23.7598 10.8132 23.7598 15.9939C23.7598 16.8276 23.6407 17.6612 23.4621 18.4056L27.958 22.9015C29.1192 20.9066 29.7742 18.5247 29.7742 15.9641C29.7742 7.98462 23.4025 2 14.8573 2C6.37168 2 0 7.95484 0 15.9641C0 24.0329 6.37168 30.0771 14.8573 30.0771C17.0606 30.0771 19.115 29.6602 20.9313 28.9457L16.9415 24.9559Z" fill="#176FC1"/>
<path d="M23.7904 21.0256H19.5625V25.3727L25.2196 31H29.7453V26.9209L23.7904 21.0256Z" fill="#176FC1"/>
<path d="M14.8595 16.2916H18.9982L16.9735 14.2968H12.6562V18.4651L14.8595 20.6684V16.2916Z" fill="#176FC1"/>
<mask id="path-5-inside-1_2680_182" fill="white">
<path fill-rule="evenodd" clip-rule="evenodd" d="M25.6667 8L33 15.5L25.6667 23V19H19V12H25.6667V8Z"/>
</mask>
<path fill-rule="evenodd" clip-rule="evenodd" d="M25.6667 8L33 15.5L25.6667 23V19H19V12H25.6667V8Z" fill="#12FD1A"/>
<path d="M33 15.5L33.715 14.8009L34.3986 15.5L33.715 16.1991L33 15.5ZM25.6667 8H24.6667V5.5469L26.3817 7.30088L25.6667 8ZM25.6667 23L26.3817 23.6991L24.6667 25.4531V23H25.6667ZM25.6667 19V18H26.6667V19H25.6667ZM19 19V20H18V19H19ZM19 12H18V11H19V12ZM25.6667 12H26.6667V13H25.6667V12ZM32.285 16.1991L24.9517 8.69912L26.3817 7.30088L33.715 14.8009L32.285 16.1991ZM24.9517 22.3009L32.285 14.8009L33.715 16.1991L26.3817 23.6991L24.9517 22.3009ZM26.6667 19V23H24.6667V19H26.6667ZM19 18H25.6667V20H19V18ZM20 12V19H18V12H20ZM25.6667 13H19V11H25.6667V13ZM26.6667 8V12H24.6667V8H26.6667Z" fill="#284161" mask="url(#path-5-inside-1_2680_182)"/>
</svg>
