<svg width="24" height="24" xmlns="http://www.w3.org/2000/svg">

 <g>
  <title>background</title>
  <rect fill="none" id="canvas_background" height="132.723705" width="120.537317" y="-1" x="-1"/>
 </g>
 <g>
  <title>Layer 1</title>
  <g stroke="null" id="svg_1">
   <path fill="#007fff" stroke="null" id="svg_2" d="m14.373138,14.335526c1.344778,0 2.373138,-1.012061 2.373138,-2.335526s-1.02836,-2.335526 -2.373138,-2.335526s-2.373138,1.012061 -2.373138,2.335526s1.02836,2.335526 2.373138,2.335526zm0,-3.892544c0.870151,0 1.582092,0.700658 1.582092,1.557017s-0.711941,1.557017 -1.582092,1.557017s-1.582092,-0.700658 -1.582092,-1.557017s0.711941,-1.557017 1.582092,-1.557017z"/>
   <path fill="#007fff" stroke="null" id="svg_3" d="m20.622401,2.657895l-17.244802,0c-0.474628,0 -0.870151,0.389254 -0.870151,0.85636l0,16.97149c0,0.467105 0.395523,0.85636 0.870151,0.85636l17.244802,0c0.474628,0 0.870151,-0.389254 0.870151,-0.85636l0,-16.97149c0,-0.467105 -0.395523,-0.85636 -0.870151,-0.85636zm-16.532861,17.127192l0,-1.712719l3.95523,-3.892544l4.350753,4.281798l1.977615,-2.024123l3.559707,3.425438l-13.843304,0l0,-0.077851zm15.820919,0l-0.791046,0l-4.746276,-4.593201l-1.977615,2.024123l-4.350753,-4.203947l-3.95523,3.892544l0,-8.797149l15.820919,0l0,11.677631zm0,-12.45614l-15.820919,0l0,-3.114035l15.820919,0l0,3.114035z"/>
   <circle fill="#007fff" stroke="null" id="svg_4" r="0.778509" cy="5.77193" cx="5.671632"/>
   <circle fill="#007fff" stroke="null" id="svg_5" r="0.778509" cy="5.77193" cx="8.04477"/>
   <circle fill="#007fff" stroke="null" id="svg_6" r="0.778509" cy="5.77193" cx="10.417908"/>
  </g>
 </g>
</svg>