<svg width="33" height="33" viewBox="0 0 33 33" fill="none" xmlns="http://www.w3.org/2000/svg">
<mask id="path-1-inside-1_2680_251" fill="white">
<path d="M18.3472 30.957C18.3472 30.9201 18.3009 30.89 18.2442 30.89C18.146 30.89 18.036 30.704 16.9748 28.7455C16.2217 27.3555 16.2721 27.4167 15.8855 27.4206C15.6816 27.4226 15.6516 27.4495 15.3441 27.906C15.165 28.1718 14.6404 28.9387 14.1783 29.6102L13.3382 30.8311H13.0891C12.7944 30.8311 12.0844 30.6324 11.2244 30.3092C10.3102 29.9656 10.1675 29.8889 10.1675 29.7409C10.1675 29.6711 10.221 28.8883 10.2864 28.0013C10.3518 27.1144 10.4114 26.222 10.4188 26.0182L10.4323 25.6476L10.166 25.4486L9.89972 25.2496L8.1064 26.0083C6.90275 26.5176 6.24022 26.7677 6.09149 26.7691C5.90174 26.7709 5.83246 26.731 5.60932 26.4917C4.8877 25.7177 4.04686 24.5294 4.04724 24.2841C4.04743 24.1639 4.36808 23.6938 5.27141 22.4895L6.49533 20.8578L6.40421 20.6224C6.27401 20.286 6.24945 20.2595 6.03499 20.2232C4.84185 20.0214 2.65808 19.6349 2.42103 19.5835L2.11861 19.5181L2.08224 18.9229C1.98278 17.2951 1.9739 16.4835 2.0536 16.3034C2.12817 16.135 2.2481 16.0808 3.96634 15.4395L5.79952 14.7553L5.83498 14.5409C5.85448 14.423 5.87073 14.2853 5.87109 14.235C5.87145 14.1846 5.18323 13.5124 4.34173 12.7412C3.41557 11.8925 2.81172 11.2969 2.81172 11.2321C2.81172 10.9986 3.54858 9.47643 4.02676 8.72205C4.20266 8.44454 4.24373 8.41314 4.43066 8.41314C4.54511 8.41314 5.47889 8.59845 6.50573 8.82495C7.53257 9.05145 8.38938 9.23679 8.40976 9.23683C8.43013 9.23686 8.5439 9.11841 8.66257 8.97361L8.87834 8.71032L8.64382 7.81152C8.00284 5.35499 7.87252 4.83357 7.87252 4.72563C7.87252 4.6551 7.97203 4.53734 8.12262 4.42967C8.87267 3.89338 10.3471 3.11755 10.6163 3.11755C10.7576 3.11755 11.0167 3.34957 12.2348 4.5668L13.6851 6.01604L13.9418 5.97724C14.083 5.95589 14.2271 5.91934 14.2621 5.89601C14.297 5.87269 14.5981 5.0187 14.9311 3.99825C15.4709 2.34411 15.553 2.13514 15.6884 2.07125C15.8862 1.97792 17.261 1.97588 18.2151 2.06749L18.9364 2.13673L18.9932 2.34765C19.0244 2.46365 19.1028 2.81011 19.1675 3.11755C19.4512 4.46732 19.8173 6.13654 19.8319 6.14685C19.8763 6.17825 20.357 6.35374 20.3985 6.35374C20.4427 6.35374 20.6416 6.19636 22.0309 5.06204C23.3723 3.96676 23.6363 3.76479 23.7263 3.76479C23.8775 3.76479 24.2625 3.97686 24.9115 4.41764C25.7632 4.99602 26.3174 5.47494 26.3376 5.64996C26.3468 5.7296 26.0385 6.64206 25.6525 7.67764C25.1731 8.96366 24.9668 9.58849 25.0017 9.64877C25.0298 9.69732 25.1268 9.82448 25.2171 9.93135L25.3814 10.1257L26.1454 10.0349C28.1611 9.7955 29.4745 9.68217 29.5659 9.73978C29.7695 9.86818 30.705 12.2262 30.705 12.6109C30.705 12.7319 30.4309 12.9621 29.0426 14.007C28.1282 14.6952 27.3708 15.2654 27.3594 15.2741C27.348 15.2828 27.3564 15.4194 27.3782 15.5776L27.4178 15.8654L29.1242 16.714C31.1159 17.7046 31.0418 17.6358 30.9756 18.4338C30.9535 18.699 30.9129 19.2073 30.8852 19.5633C30.8576 19.9193 30.7791 20.3861 30.7109 20.6007L30.5869 20.9908L29.9545 21.0313C28.7698 21.107 26.3959 21.2927 26.383 21.3106C26.376 21.3205 26.3025 21.4522 26.2198 21.6035L26.0694 21.8784L27.122 23.6213C27.7009 24.5798 28.1746 25.4268 28.1746 25.5034C28.1746 25.7004 27.8048 26.1508 26.9044 27.0507C26.2642 27.6904 26.0938 27.8303 25.9546 27.8303C25.8458 27.8303 25.1465 27.48 24.0074 26.8548L22.23 25.8793L21.951 26.0503L21.672 26.2214L21.6286 26.8935C21.6047 27.2631 21.5687 28.2183 21.5486 29.0161L21.512 30.4666L20.8564 30.6595C20.4353 30.7835 19.9905 30.8685 19.6124 30.8973C19.2887 30.922 18.8717 30.9606 18.6856 30.9831C18.4476 31.012 18.3472 31.0042 18.3472 30.957V30.957ZM17.4404 20.827C18.3489 20.5947 19.0912 20.1492 19.761 19.4343C20.2466 18.9161 20.5395 18.4137 20.7665 17.7098C20.9243 17.2206 20.947 17.0664 20.948 16.4742C20.9498 15.4685 20.7132 14.7118 20.1506 13.9237C19.2671 12.686 17.8848 11.9435 16.4641 11.9435C15.7537 11.9435 15.2854 12.0599 14.5267 12.4252C13.9816 12.6876 13.85 12.7838 13.3449 13.2882C12.7383 13.8939 12.4704 14.3064 12.2117 15.0326C11.9088 15.8831 11.8716 16.5998 12.0856 17.4631C12.6742 19.8385 15.1714 21.4072 17.4404 20.827V20.827Z"/>
</mask>
<path d="M18.3472 30.957C18.3472 30.9201 18.3009 30.89 18.2442 30.89C18.146 30.89 18.036 30.704 16.9748 28.7455C16.2217 27.3555 16.2721 27.4167 15.8855 27.4206C15.6816 27.4226 15.6516 27.4495 15.3441 27.906C15.165 28.1718 14.6404 28.9387 14.1783 29.6102L13.3382 30.8311H13.0891C12.7944 30.8311 12.0844 30.6324 11.2244 30.3092C10.3102 29.9656 10.1675 29.8889 10.1675 29.7409C10.1675 29.6711 10.221 28.8883 10.2864 28.0013C10.3518 27.1144 10.4114 26.222 10.4188 26.0182L10.4323 25.6476L10.166 25.4486L9.89972 25.2496L8.1064 26.0083C6.90275 26.5176 6.24022 26.7677 6.09149 26.7691C5.90174 26.7709 5.83246 26.731 5.60932 26.4917C4.8877 25.7177 4.04686 24.5294 4.04724 24.2841C4.04743 24.1639 4.36808 23.6938 5.27141 22.4895L6.49533 20.8578L6.40421 20.6224C6.27401 20.286 6.24945 20.2595 6.03499 20.2232C4.84185 20.0214 2.65808 19.6349 2.42103 19.5835L2.11861 19.5181L2.08224 18.9229C1.98278 17.2951 1.9739 16.4835 2.0536 16.3034C2.12817 16.135 2.2481 16.0808 3.96634 15.4395L5.79952 14.7553L5.83498 14.5409C5.85448 14.423 5.87073 14.2853 5.87109 14.235C5.87145 14.1846 5.18323 13.5124 4.34173 12.7412C3.41557 11.8925 2.81172 11.2969 2.81172 11.2321C2.81172 10.9986 3.54858 9.47643 4.02676 8.72205C4.20266 8.44454 4.24373 8.41314 4.43066 8.41314C4.54511 8.41314 5.47889 8.59845 6.50573 8.82495C7.53257 9.05145 8.38938 9.23679 8.40976 9.23683C8.43013 9.23686 8.5439 9.11841 8.66257 8.97361L8.87834 8.71032L8.64382 7.81152C8.00284 5.35499 7.87252 4.83357 7.87252 4.72563C7.87252 4.6551 7.97203 4.53734 8.12262 4.42967C8.87267 3.89338 10.3471 3.11755 10.6163 3.11755C10.7576 3.11755 11.0167 3.34957 12.2348 4.5668L13.6851 6.01604L13.9418 5.97724C14.083 5.95589 14.2271 5.91934 14.2621 5.89601C14.297 5.87269 14.5981 5.0187 14.9311 3.99825C15.4709 2.34411 15.553 2.13514 15.6884 2.07125C15.8862 1.97792 17.261 1.97588 18.2151 2.06749L18.9364 2.13673L18.9932 2.34765C19.0244 2.46365 19.1028 2.81011 19.1675 3.11755C19.4512 4.46732 19.8173 6.13654 19.8319 6.14685C19.8763 6.17825 20.357 6.35374 20.3985 6.35374C20.4427 6.35374 20.6416 6.19636 22.0309 5.06204C23.3723 3.96676 23.6363 3.76479 23.7263 3.76479C23.8775 3.76479 24.2625 3.97686 24.9115 4.41764C25.7632 4.99602 26.3174 5.47494 26.3376 5.64996C26.3468 5.7296 26.0385 6.64206 25.6525 7.67764C25.1731 8.96366 24.9668 9.58849 25.0017 9.64877C25.0298 9.69732 25.1268 9.82448 25.2171 9.93135L25.3814 10.1257L26.1454 10.0349C28.1611 9.7955 29.4745 9.68217 29.5659 9.73978C29.7695 9.86818 30.705 12.2262 30.705 12.6109C30.705 12.7319 30.4309 12.9621 29.0426 14.007C28.1282 14.6952 27.3708 15.2654 27.3594 15.2741C27.348 15.2828 27.3564 15.4194 27.3782 15.5776L27.4178 15.8654L29.1242 16.714C31.1159 17.7046 31.0418 17.6358 30.9756 18.4338C30.9535 18.699 30.9129 19.2073 30.8852 19.5633C30.8576 19.9193 30.7791 20.3861 30.7109 20.6007L30.5869 20.9908L29.9545 21.0313C28.7698 21.107 26.3959 21.2927 26.383 21.3106C26.376 21.3205 26.3025 21.4522 26.2198 21.6035L26.0694 21.8784L27.122 23.6213C27.7009 24.5798 28.1746 25.4268 28.1746 25.5034C28.1746 25.7004 27.8048 26.1508 26.9044 27.0507C26.2642 27.6904 26.0938 27.8303 25.9546 27.8303C25.8458 27.8303 25.1465 27.48 24.0074 26.8548L22.23 25.8793L21.951 26.0503L21.672 26.2214L21.6286 26.8935C21.6047 27.2631 21.5687 28.2183 21.5486 29.0161L21.512 30.4666L20.8564 30.6595C20.4353 30.7835 19.9905 30.8685 19.6124 30.8973C19.2887 30.922 18.8717 30.9606 18.6856 30.9831C18.4476 31.012 18.3472 31.0042 18.3472 30.957V30.957ZM17.4404 20.827C18.3489 20.5947 19.0912 20.1492 19.761 19.4343C20.2466 18.9161 20.5395 18.4137 20.7665 17.7098C20.9243 17.2206 20.947 17.0664 20.948 16.4742C20.9498 15.4685 20.7132 14.7118 20.1506 13.9237C19.2671 12.686 17.8848 11.9435 16.4641 11.9435C15.7537 11.9435 15.2854 12.0599 14.5267 12.4252C13.9816 12.6876 13.85 12.7838 13.3449 13.2882C12.7383 13.8939 12.4704 14.3064 12.2117 15.0326C11.9088 15.8831 11.8716 16.5998 12.0856 17.4631C12.6742 19.8385 15.1714 21.4072 17.4404 20.827V20.827Z" fill="#7597C6" stroke="#284161" stroke-width="1.4" mask="url(#path-1-inside-1_2680_251)"/>
</svg>
