<svg width="33" height="33" viewBox="0 0 33 33" fill="none" xmlns="http://www.w3.org/2000/svg">
<path d="M27.7528 18.5083C27.7528 20.9197 26.9679 23.2657 25.5166 25.1915C24.0653 27.1174 22.0265 28.5185 19.7084 29.1831C17.3903 29.8477 14.9189 29.7397 12.6677 28.8754C10.4164 28.011 8.50767 26.4374 7.22994 24.3922C5.95221 22.3471 5.37493 19.9416 5.58533 17.5393C5.79574 15.1371 6.7824 12.8685 8.39619 11.0767C10.01 9.28477 12.1632 8.06689 14.5305 7.60708C16.8977 7.14726 19.3503 7.47051 21.5175 8.52796" stroke="#284161" stroke-width="5.55246"/>
<path d="M27.7565 11.7228L15.418 14.8076L24.6728 0L27.7565 11.7228Z" fill="#284161"/>
<path fill-rule="evenodd" clip-rule="evenodd" d="M17.8843 13.1536L26.3119 10.8955L24.0538 2.4679L21.5289 6.84106C19.2301 5.87919 16.6926 5.61581 14.2357 6.09303C11.5397 6.6167 9.08744 8.00374 7.24951 10.0445C5.41157 12.0853 4.28787 14.6688 4.04825 17.4048C3.80862 20.1407 4.46608 22.8803 5.92127 25.2095C7.37647 27.5387 9.5503 29.3309 12.1142 30.3152C14.6782 31.2996 17.4928 31.4226 20.1329 30.6657C22.7729 29.9088 25.0948 28.3131 26.7477 26.1198C28.4006 23.9264 29.2946 21.2547 29.2946 18.5083H26.2099C26.2099 20.5848 25.5339 22.6049 24.2842 24.2633C23.0345 25.9217 21.2789 27.1282 19.2827 27.7005C17.2866 28.2728 15.1584 28.1798 13.2199 27.4355C11.2813 26.6912 9.63764 25.3361 8.53738 23.575C7.43711 21.8139 6.94 19.7425 7.12118 17.6739C7.30237 15.6053 8.15199 13.6518 9.54165 12.1088C10.9313 10.5658 12.7855 9.51708 14.8239 9.12114C16.5512 8.78563 18.3312 8.93427 19.9698 9.54145L17.8843 13.1536Z" fill="#7597C6"/>
<path d="M25 18.5H30.5" stroke="#284161"/>
</svg>
