<svg width="128" height="128" xmlns="http://www.w3.org/2000/svg">

 <g>
  <title>background</title>
  <rect fill="none" id="canvas_background" height="132.723705" width="120.537317" y="-1" x="-1"/>
 </g>
 <g>
  <title>Layer 1</title>
  <path stroke-width="2" stroke="null" id="svg_1" fill="#007fff" d="m63.953041,15.152175c2.81755,0 5.729018,0.273913 8.546568,0.730435l0,7.486956l0,2.73913l2.723632,0.730435c2.723632,0.821739 5.353345,1.826087 7.795222,3.104348l2.441877,1.278261l1.972285,-1.917391l5.447263,-5.295652c4.695917,3.195652 8.828323,7.213043 12.115465,11.778261l-5.447263,5.295652l-1.972285,1.917391l1.314857,2.373913c1.314857,2.373913 2.441877,4.930435 3.193223,7.578261l0.751347,2.647826l2.81755,0l7.701303,0c0.469592,2.73913 0.751347,5.569565 0.751347,8.308695s-0.281755,5.569565 -0.751347,8.308695l-7.607385,0l-2.81755,0l-0.751347,2.647826c-0.845265,2.647826 -1.878367,5.204348 -3.193223,7.578261l-1.314857,2.373913l1.972285,1.917391l5.447263,5.295652c-3.287142,4.565217 -7.419548,8.582608 -12.115465,11.778261l-5.447263,-5.295652l-1.972285,-1.917391l-2.441877,1.278261c-2.441877,1.278261 -5.07159,2.373913 -7.795222,3.104348l-2.723632,0.730435l0,2.73913l0,7.486956c-2.81755,0.456522 -5.729018,0.730435 -8.546568,0.730435s-5.729018,-0.273913 -8.546568,-0.730435l0,-7.486956l0,-2.73913l-2.723632,-0.730435c-2.723632,-0.821739 -5.353345,-1.826087 -7.795222,-3.104348l-2.441877,-1.278261l-1.972285,1.917391l-5.447263,5.295652c-4.695917,-3.195652 -8.828323,-7.213043 -12.115465,-11.778261l5.447263,-5.295652l1.972285,-1.917391l-1.314857,-2.373913c-1.314857,-2.373913 -2.441877,-4.930435 -3.193223,-7.578261l-0.751347,-2.647826l-2.81755,0l-7.701303,0c-0.657428,-2.647826 -0.939183,-5.478261 -0.939183,-8.217391s0.281755,-5.569565 0.751347,-8.308695l7.701303,0l2.81755,0l0.751347,-2.647826c0.845265,-2.647826 1.878367,-5.204348 3.193223,-7.578261l1.314857,-2.373913l-1.972285,-1.917391l-5.447263,-5.295652c3.287142,-4.565217 7.419548,-8.582608 12.115465,-11.778261l5.447263,5.295652l1.972285,1.917391l2.441877,-1.278261c2.441877,-1.278261 5.07159,-2.373913 7.795222,-3.104348l2.723632,-0.730435l0,-2.73913l0,-7.486956c2.911468,-0.547826 5.822937,-0.821739 8.640487,-0.821739m0,-3.652174c-4.226325,0 -8.358732,0.456522 -12.303302,1.369565l0,10.408695c-3.005387,0.821739 -5.822937,2.008696 -8.546568,3.469565l-7.607385,-7.395652c-7.043875,4.291304 -13.054649,10.043478 -17.46881,16.982608l7.607385,7.395652c-1.502693,2.647826 -2.629713,5.386956 -3.568897,8.308695l-10.70669,0c-0.939183,3.834782 -1.408775,7.852174 -1.408775,11.960869s0.469592,8.126087 1.408775,11.960869l10.800608,0c0.845265,2.921739 2.066203,5.660869 3.568897,8.308695l-7.607385,7.395652c4.414162,6.847826 10.331017,12.691304 17.46881,16.982608l7.607385,-7.395652c2.723632,1.46087 5.541182,2.556522 8.546568,3.469565l0,10.408695c3.94457,0.913043 8.076977,1.369565 12.303302,1.369565s8.358732,-0.456522 12.303302,-1.369565l0,-10.408695c3.005387,-0.821739 5.822937,-2.008696 8.546568,-3.469565l7.607385,7.395652c7.043875,-4.291304 13.054649,-10.043478 17.46881,-16.982608l-7.607385,-7.395652c1.502693,-2.647826 2.629713,-5.386956 3.568897,-8.308695l10.70669,0c0.939183,-3.834782 1.408775,-7.852174 1.408775,-11.960869s-0.469592,-8.126087 -1.408775,-11.960869l-10.894527,0c-0.845265,-2.921739 -2.066203,-5.660869 -3.568897,-8.308695l7.607385,-7.395652c-4.414162,-6.847826 -10.331017,-12.691304 -17.46881,-16.982608l-7.607385,7.395652c-2.723632,-1.46087 -5.541182,-2.556522 -8.546568,-3.469565l0,-10.408695c-3.850652,-0.913043 -7.983058,-1.369565 -12.209384,-1.369565l0,0z"/>
  <path stroke-width="2" stroke="null" id="svg_2" fill="#333333" d="m64,39.005515c13.83041,0 25.044256,11.212479 25.044256,25.041203s-11.213846,24.947766 -25.044256,24.947766s-25.044256,-11.212479 -25.044256,-25.041203s11.213846,-24.947766 25.044256,-24.947766m0,-1.868747c-14.858346,0 -26.91323,12.053415 -26.91323,26.90995s12.054884,26.816513 26.91323,26.816513s26.91323,-12.053415 26.91323,-26.90995s-12.054884,-26.816513 -26.91323,-26.816513l0,0z"/>
 </g>
</svg>