<?xml version="1.0" encoding="utf-8"?>
<!-- Generator: Adobe Illustrator 19.1.1, SVG Export Plug-In . SVG Version: 6.00 Build 0)  -->
<svg version="1.1" id="Слой_1" xmlns="http://www.w3.org/2000/svg" xmlns:xlink="http://www.w3.org/1999/xlink" x="0px" y="0px"
	 viewBox="0 0 63 71" style="enable-background:new 0 0 63 71;" xml:space="preserve">
<style type="text/css">
	.st0{fill:#6E97C4;}
	.st1{fill:#F9DD38;}
</style>
<path id="path3050-3-9-3-2-3" class="st0" d="
	M26.6,5.1c-12.8,0.7-23,11.7-23,25.3c0,14,10.8,25.3,24.2,25.3c1.4,0,2.8-0.2,4.2-0.4v4c0.1,1.7,2.2,5.4,8.7,5.4
	c7.5,0.1,11.1-4.6,11.7-6c1.2-3.2,1-5.2,0.9-6.5c0,0.8-2.6,5.4-6.7,5.5c-6.5,0.2-5.8-0.9-5.8-2.7v-3.4C47.6,47.2,52,39.3,52,30.4
	c0-14-10.8-25.3-24.2-25.3C27.4,5.1,27,5.1,26.6,5.1L26.6,5.1z M27.4,6.9c5.1,0,9.2,10.3,9.2,23c0,2.8-0.2,5.5-0.6,8.1
	c-2.1-0.9-4.8-1.6-8.1-1.6c-4.8,0-7.8,1.1-9,1.9c-0.4-2.6-0.7-5.5-0.7-8.4C18.3,17.2,22.4,6.9,27.4,6.9z M25.8,37.6
	c4.9,0.1,6.3,2,6.3,3v9.2c-1.4,2-2.9,3.1-4.6,3.1c-3.7,0-6.8-5.5-8.3-13.4C20.3,38.8,22.7,37.6,25.8,37.6L25.8,37.6z"/>
<path id="path3895-6-6-7-4-6-8-4-5" class="st0" d="M57.1,0
	l-3.4,18.5l-3.9-3.9c0,0-26.5,34.5-32.7,42.5L15.2,70l-4.6-9.6L57.1,0z"/>
<path id="path3895-6-6-7-4-6-8-4" class="st0" d="M57.1,0l-17,8
	l4.8,2.8c0,0-26.6,34.5-32.7,42.5l-12,5.1l10.5,2L57.1,0z"/>
<g id="arrow_x5F_full_x5F_down">
	<polygon class="st1" points="63,55 55,55 55,39 42.9,39 42.9,55 34.9,55 48.9,71 	"/>
</g>
</svg>
