<?xml version="1.0" encoding="UTF-8" standalone="no"?>
<svg
   width="24"
   height="24"
   version="1.1"
   id="svg17"
   sodipodi:docname="mActionHelp.svg"
   inkscape:version="1.1 (c68e22c387, 2021-05-23)"
   xmlns:inkscape="http://www.inkscape.org/namespaces/inkscape"
   xmlns:sodipodi="http://sodipodi.sourceforge.net/DTD/sodipodi-0.dtd"
   xmlns="http://www.w3.org/2000/svg"
   xmlns:svg="http://www.w3.org/2000/svg">
  <defs
     id="defs21" />
  <sodipodi:namedview
     id="namedview19"
     pagecolor="#ffffff"
     bordercolor="#666666"
     borderopacity="1.0"
     inkscape:pageshadow="2"
     inkscape:pageopacity="0.0"
     inkscape:pagecheckerboard="0"
     showgrid="false"
     inkscape:snap-global="false"
     inkscape:zoom="16.229167"
     inkscape:cx="11.183568"
     inkscape:cy="15.74326"
     inkscape:window-width="1920"
     inkscape:window-height="1017"
     inkscape:window-x="-8"
     inkscape:window-y="-8"
     inkscape:window-maximized="1"
     inkscape:current-layer="svg17" />
  <g
     id="g5">
    <title
       id="title2">background</title>
    <rect
       fill="none"
       id="canvas_background"
       height="132.723705"
       width="120.537317"
       y="-1"
       x="-1" />
  </g>
  <path
     d="m 12.788313,15.72918 h -2.456241 q -0.0096,-0.529778 -0.0096,-0.645367 0,-1.194407 0.394926,-1.964991 0.394924,-0.770585 1.579699,-1.733817 1.184775,-0.963229 1.415951,-1.261832 0.356392,-0.4719824 0.356392,-1.0402919 0,-0.7898485 -0.635732,-1.3485213 -0.626099,-0.5683046 -1.695285,-0.5683046 -1.030658,0 -1.724185,0.587568 Q 9.3206771,8.3411961 9.0606045,9.5452321 L 6.5754708,9.2369981 Q 6.6814259,7.5128159 8.0395824,6.308775 9.4073704,5.1047391 11.622803,5.1047391 q 2.331018,0 3.708442,1.2233043 1.37742,1.2136676 1.37742,2.8318961 0,0.8958065 -0.510515,1.6952875 -0.500883,0.799484 -2.157637,2.176906 -0.857276,0.712789 -1.069189,1.146245 -0.202278,0.433452 -0.183011,1.550802 z m -2.456241,3.641013 v -2.706679 h 2.70668 v 2.706679 z"
     style="font-weight:bold;font-size:40px;line-height:1.25;font-family:Arial;-inkscape-font-specification:'Arial Bold';white-space:pre;shape-inside:url(#rect1662);fill:#0041da;fill-opacity:1;stroke-width:0.493174"
     id="path12946" />
</svg>
