<?xml version="1.0" encoding="UTF-8" standalone="no"?>
<svg
   width="64"
   height="64"
   viewBox="0 0 64 64"
   fill="none"
   version="1.1"
   id="svg4"
   sodipodi:docname="connect_logo.svg"
   inkscape:version="1.4 (e7c3feb100, 2024-10-09)"
   xmlns:inkscape="http://www.inkscape.org/namespaces/inkscape"
   xmlns:sodipodi="http://sodipodi.sourceforge.net/DTD/sodipodi-0.dtd"
   xmlns="http://www.w3.org/2000/svg"
   xmlns:svg="http://www.w3.org/2000/svg">
  <sodipodi:namedview
     id="namedview4"
     pagecolor="#505050"
     bordercolor="#eeeeee"
     borderopacity="1"
     inkscape:showpageshadow="0"
     inkscape:pageopacity="0"
     inkscape:pagecheckerboard="0"
     inkscape:deskcolor="#d1d1d1"
     showguides="true"
     inkscape:zoom="8"
     inkscape:cx="42.25"
     inkscape:cy="13.9375"
     inkscape:window-width="1920"
     inkscape:window-height="1010"
     inkscape:window-x="0"
     inkscape:window-y="0"
     inkscape:window-maximized="1"
     inkscape:current-layer="svg4" />
  <path
     d="m 63.969663,48.656905 c 0,1.959129 -1.239432,4.197989 -3.558294,5.077611 -2.318939,0.879545 -22.389382,8.795828 -25.148131,9.635411 -2.718711,0.799621 -3.798141,0.879622 -6.037079,0 C 26.98722,62.490383 5.4374213,54.734023 3.5583164,53.734516 1.6792035,52.774972 0,50.616034 0,48.656905 V 3.5583164 C 0,1.5992416 1.5992416,0 3.5583164,0 H 60.411369 c 1.959051,0 3.558294,1.5992416 3.558294,3.5583164 z"
     fill="#31b7da"
     id="path1"
     inkscape:label="bg"
     style="stroke-width:0.999996" />
  <path
     id="path3"
     d="m 21.333281,11.058467 c -0.179712,0 -0.3594,0.07729 -0.483428,0.232032 l -9.647211,12.036059 c -0.325114,0.40558 -0.03653,1.00709 0.483277,1.00709 h 5.899896 v 18.718271 c 0,2.0761 1.671366,3.747466 3.747466,3.747466 2.076098,0 3.747466,-1.671366 3.747466,-3.747466 V 24.333648 h 5.899895 c 0.519734,0 0.808541,-0.60151 0.483427,-1.00709 L 21.816708,11.290499 c -0.124029,-0.154735 -0.303716,-0.232032 -0.483427,-0.232032 z"
     style="fill:#ffffff;fill-opacity:1;stroke-width:0.999996"
     inkscape:label="arrow_left" />
  <defs
     id="defs4">
    <clipPath
       clipPathUnits="userSpaceOnUse"
       id="clipPath4">
      <rect
         width="826"
         height="826"
         fill="#ffffff"
         id="rect5"
         x="0"
         y="0"
         transform="scale(1,-1)" />
    </clipPath>
  </defs>
  <path
     id="path8"
     d="m 42.666613,46.428345 c -0.17971,0 -0.359398,-0.0773 -0.483426,-0.232033 L 32.535976,34.160253 c -0.325115,-0.40558 -0.03653,-1.00709 0.483277,-1.00709 h 5.899895 V 14.434891 c 0,-2.0761 1.671366,-3.747465 3.747465,-3.747465 2.0761,0 3.747466,1.671365 3.747466,3.747465 v 18.718272 h 5.899896 c 0.519735,0 0.808542,0.60151 0.483427,1.00709 l -9.647361,12.036059 c -0.124029,0.154734 -0.303716,0.232033 -0.483428,0.232033 z"
     style="fill:#ffffff;fill-opacity:1;stroke-width:0.999996"
     inkscape:label="arrow_right" />
</svg>
