<svg xmlns="http://www.w3.org/2000/svg" width="64" height="64" fill="none" viewBox="0 0 64 64"><rect width="64" height="64" fill="#176fc1" rx="7.291" style="stroke-width:.202532"/><path fill="#fff" d="M42.977 49.5c.248.31.72.31.968 0l9.651-12.041a.62.62 0 0 0-.483-1.008H33.809a.62.62 0 0 0-.484 1.008z" style="stroke-width:.202532"/><path fill="#fff" d="M47.185 38.856a3.75 3.75 0 1 1-7.498 0V17.724a3.75 3.75 0 1 1 7.498 0zM20.055 14.578a.62.62 0 0 1 .968 0l9.652 12.042a.62.62 0 0 1-.484 1.007H10.887a.62.62 0 0 1-.483-1.007z" style="stroke-width:.202532"/><path fill="#fff" d="M24.263 25.222a3.75 3.75 0 0 0-7.498 0v21.132a3.75 3.75 0 1 0 7.498 0z" style="stroke-width:.202532"/></svg>