<?xml version="1.0" encoding="iso-8859-1"?>
<!-- Generator: Adobe Illustrator 19.0.0, SVG Export Plug-In . SVG Version: 6.00 Build 0)  -->
<svg xmlns="http://www.w3.org/2000/svg" xmlns:xlink="http://www.w3.org/1999/xlink" version="1.1" id="Layer_1" x="0px" y="0px" viewBox="0 0 512 512" style="enable-background:new 0 0 512 512;" xml:space="preserve">
<path style="fill:#E0E0E3;" d="M434.682,461.419L324.656,301.204c-5.1-7.427-7.83-16.226-7.83-25.236V40.224H195.174v235.744  c0,9.01-2.73,17.808-7.83,25.236L77.318,461.419c-13.197,19.218,0.561,45.357,23.874,45.357h309.616  C434.121,506.775,447.879,480.636,434.682,461.419z"/>
<rect x="195.176" y="40.224" style="fill:#D2D1D3;" width="121.647" height="29.596"/>
<path style="fill:#E0E0E3;" d="M322.095,40.224H191.767c-7.998,0-14.481-6.484-14.481-14.481v-0.814  c0-7.998,6.484-14.481,14.481-14.481h130.328c7.998,0,14.481,6.484,14.481,14.481v0.814  C336.575,33.742,330.093,40.224,322.095,40.224z"/>
<path style="fill:#00D8DE;" d="M386.78,472.62H125.213c-6.212,0-9.876-6.98-6.343-12.092l18.666-26.993l55.853-80.774l14.756-21.345  c0.029-0.044,0.101-0.029,0.131-0.072c5.126-6.024,11.498-12.613,25.486-6.082c6.459,3.012,9.022,7.704,14.032,12.324  c14.785,13.597,19.954,17.898,34.117,18.231c5.618,0.131,11.585-0.796,16.899-2.027c10.701-2.476,21.808,1.868,28.049,10.89  l52.015,75.243l14.249,20.606C396.657,465.641,393.007,472.62,386.78,472.62z"/>
<path style="fill:#00B6BE;" d="M386.78,472.62H125.213c-6.212,0-9.876-6.98-6.343-12.092l18.666-26.993l26.601-20.056  c0.057-0.044,0.203-0.044,0.26-0.072c9.832-6.024,22.069-12.628,48.916-6.096c12.396,3.012,17.319,7.704,26.934,12.324  c28.368,13.597,38.302,17.913,65.483,18.246c10.789,0.131,22.228-0.796,32.437-2.027c14.336-1.738,29.048-0.145,40.706,4.069  l14.249,20.606C396.657,465.641,393.007,472.62,386.78,472.62z"/>
<path d="M441.142,454.37L331.117,294.155c-4.222-6.149-6.454-13.341-6.454-20.8V156.735c0-4.328-3.509-7.837-7.837-7.837  s-7.837,3.509-7.837,7.837v116.621c0,10.64,3.184,20.9,9.208,29.672l110.026,160.214c4.521,6.583,4.999,14.732,1.279,21.799  c-3.72,7.067-10.708,11.285-18.693,11.285H101.192c-7.986,0-14.974-4.219-18.693-11.285c-3.72-7.067-3.242-15.216,1.279-21.799  l110.026-160.214c6.024-8.772,9.208-19.033,9.208-29.672V45.45h105.978v75.302c0,4.328,3.509,7.837,7.837,7.837  s7.837-3.509,7.837-7.837V45.29c11.099-1.279,19.75-10.722,19.75-22.158v-0.814C344.412,10.012,334.401,0,322.095,0H191.767  c-12.306,0-22.317,10.012-22.317,22.317v0.814c0,10.79,7.698,19.812,17.889,21.873v228.352c0,7.458-2.232,14.651-6.454,20.8  L70.858,454.37c-7.757,11.296-8.611,25.846-2.229,37.972C75.012,504.467,87.489,512,101.192,512h309.616  c13.703,0,26.181-7.533,32.563-19.659C449.753,480.216,448.9,465.666,441.142,454.37z M185.122,23.132v-0.814  c0-3.663,2.981-6.643,6.643-6.643h130.328c3.663,0,6.643,2.981,6.643,6.643v0.814c0,3.663-2.981,6.645-6.643,6.645H191.767  C188.104,29.776,185.122,26.795,185.122,23.132z"/>
<path d="M171.671,381.563c-3.561-2.462-8.442-1.572-10.904,1.988l-48.336,69.902c-3.299,4.767-3.675,10.919-0.983,16.056  c2.693,5.138,7.966,8.329,13.761,8.329h261.57c5.799,0,11.074-3.19,13.764-8.325c2.692-5.137,2.313-11.29-0.984-16.057  l-66.264-95.844c-8.137-11.77-22.367-17.291-36.253-14.071c-5.656,1.312-10.686,1.931-14.954,1.829  c-10.909-0.254-14.095-2.471-28.988-16.168c-1.344-1.236-2.518-2.523-3.762-3.886c-3.02-3.308-6.442-7.057-12.262-9.773  c-19.276-8.996-29.264,1.67-34.271,7.526c-0.343,0.316-0.656,0.66-0.933,1.029c-0.064,0.085-0.125,0.17-0.185,0.257l-24.05,34.793  c-2.461,3.56-1.572,8.442,1.988,10.904c3.56,2.461,8.441,1.572,10.904-1.988l23.531-34.043c0.065-0.07,0.129-0.142,0.19-0.215  c4.645-5.468,7.474-8.131,16.199-4.059c2.982,1.392,4.799,3.382,7.313,6.137c1.35,1.479,2.879,3.154,4.726,4.855  c15.386,14.15,22.304,19.908,39.235,20.302c5.584,0.13,11.924-0.621,18.86-2.23c7.579-1.759,15.361,1.268,19.818,7.716  l66.121,95.638l-261.06-0.001l48.195-69.697C176.122,388.907,175.231,384.025,171.671,381.563z"/>
<path d="M230.503,222.026h22.445c4.328,0,7.837-3.509,7.837-7.837c0-4.328-3.509-7.837-7.837-7.837h-22.445  c-4.328,0-7.837,3.509-7.837,7.837C222.667,218.517,226.175,222.026,230.503,222.026z"/>
<path d="M230.503,186.548h22.445c4.328,0,7.837-3.509,7.837-7.837c0-4.328-3.509-7.837-7.837-7.837h-22.445  c-4.328,0-7.837,3.509-7.837,7.837C222.667,183.039,226.175,186.548,230.503,186.548z"/>
<path d="M230.503,151.069h22.445c4.328,0,7.837-3.509,7.837-7.837c0-4.328-3.509-7.837-7.837-7.837h-22.445  c-4.328,0-7.837,3.509-7.837,7.837C222.667,147.56,226.175,151.069,230.503,151.069z"/>
<path d="M230.503,115.592h22.445c4.328,0,7.837-3.509,7.837-7.837s-3.509-7.837-7.837-7.837h-22.445  c-4.328,0-7.837,3.509-7.837,7.837S226.175,115.592,230.503,115.592z"/>
<g>
</g>
<g>
</g>
<g>
</g>
<g>
</g>
<g>
</g>
<g>
</g>
<g>
</g>
<g>
</g>
<g>
</g>
<g>
</g>
<g>
</g>
<g>
</g>
<g>
</g>
<g>
</g>
<g>
</g>
</svg>
