<?xml version="1.0" encoding="UTF-8" standalone="no"?>
<svg
   width="32"
   height="32"
   viewBox="0 0 32 32"
   fill="none"
   version="1.1"
   id="svg5"
   sodipodi:docname="mActionNewVectorLayer.svg"
   inkscape:version="1.4 (e7c3feb100, 2024-10-09)"
   xmlns:inkscape="http://www.inkscape.org/namespaces/inkscape"
   xmlns:sodipodi="http://sodipodi.sourceforge.net/DTD/sodipodi-0.dtd"
   xmlns="http://www.w3.org/2000/svg"
   xmlns:svg="http://www.w3.org/2000/svg">
  <defs
     id="defs5" />
  <sodipodi:namedview
     id="namedview5"
     pagecolor="#505050"
     bordercolor="#eeeeee"
     borderopacity="1"
     inkscape:showpageshadow="0"
     inkscape:pageopacity="0"
     inkscape:pagecheckerboard="0"
     inkscape:deskcolor="#d1d1d1"
     inkscape:zoom="12.136364"
     inkscape:cx="9.3108611"
     inkscape:cy="14.955056"
     inkscape:window-width="1920"
     inkscape:window-height="1010"
     inkscape:window-x="0"
     inkscape:window-y="0"
     inkscape:window-maximized="1"
     inkscape:current-layer="g7"
     showguides="true">
    <sodipodi:guide
       position="2,32"
       orientation="-1,0"
       id="guide7"
       inkscape:locked="false"
       inkscape:label=""
       inkscape:color="rgb(0,134,229)" />
    <sodipodi:guide
       position="30,0"
       orientation="-1,0"
       id="guide8"
       inkscape:locked="false"
       inkscape:label=""
       inkscape:color="rgb(0,134,229)" />
  </sodipodi:namedview>
  <mask
     id="path-3-inside-1_2680_191"
     fill="#ffffff">
    <path
       fill-rule="evenodd"
       clip-rule="evenodd"
       d="m 28.3333,17 h -4.6666 v 4.6667 H 19 v 4.6666 h 4.6667 V 31 h 4.6666 V 26.3333 H 33 v -4.6666 h -4.6667 z"
       id="path3" />
  </mask>
  <g
     id="g7"
     inkscape:label="icon"
     transform="matrix(0.95238095,0,0,0.95238095,1.130016,-1.5675495)"
     style="stroke-width:1.05">
    <g
       id="g4"
       transform="matrix(1.2249599,0,0,1.2249599,0.91444486,3.7464082)"
       inkscape:label="vector_layer"
       style="stroke-width:0.90003">
      <rect
         x="3.5"
         y="3.5"
         style="fill:none;stroke:#70a6d7;stroke-width:0.90003"
         width="17"
         height="17"
         id="rect1" />
      <path
         style="fill:#00b066;stroke-width:0.90003"
         d="M 7,3.5 C 7,5.4 5.4,7 3.5,7 1.6,7 0,5.4 0,3.5 0,1.6 1.6,0 3.5,0 5.4,0 7,1.6 7,3.5 Z"
         id="path1-3" />
      <path
         style="fill:#70a6d7;stroke-width:0.90003"
         d="M 24,3.5 C 24,5.4 22.4,7 20.5,7 18.6,7 17,5.4 17,3.5 17,1.5 18.6,0 20.5,0 22.4,0 24,1.6 24,3.5 Z"
         id="path2-5" />
      <path
         style="fill:#70a6d7;stroke-width:0.90003"
         d="m 24,20.5 c 0,1.9 -1.6,3.5 -3.5,3.5 -2,0 -3.5,-1.6 -3.5,-3.5 0,-2 1.6,-3.5 3.5,-3.5 1.9,0 3.5,1.6 3.5,3.5 z"
         id="path3-6" />
      <path
         style="fill:#70a6d7;stroke-width:0.90003"
         d="M 7,20.5 C 7,22.4 5.4,24 3.5,24 1.5,24 0,22.4 0,20.5 0,18.5 1.6,17 3.5,17 5.4,17 7,18.6 7,20.5 Z"
         id="path4-2" />
    </g>
    <g
       id="g6"
       inkscape:label="cross"
       style="stroke-width:1.05"
       transform="translate(-0.58651672,1.9643894)">
      <path
         fill-rule="evenodd"
         clip-rule="evenodd"
         d="m 28.3333,17 h -4.6666 v 4.6667 H 19 v 4.6666 h 4.6667 V 31 h 4.6666 V 26.3333 H 33 v -4.6666 h -4.6667 z"
         fill="#12fd1a"
         id="path4"
         style="stroke-width:1.05" />
      <path
         d="m 23.6667,17 v -1 h -1 v 1 z m 4.6666,0 h 1 v -1 h -1 z m -4.6666,4.6667 v 1 h 1 v -1 z m -4.6667,0 v -1 h -1 v 1 z m 0,4.6666 h -1 v 1 h 1 z m 4.6667,0 h 1 v -1 h -1 z m 0,4.6667 h -1 v 1 h 1 z m 4.6666,0 v 1 h 1 v -1 z m 0,-4.6667 v -1 h -1 v 1 z m 4.6667,0 v 1 h 1 v -1 z m 0,-4.6666 h 1 v -1 h -1 z m -4.6667,0 h -1 v 1 h 1 z M 23.6667,18 h 4.6666 v -2 h -4.6666 z m 1,3.6667 V 17 h -2 v 4.6667 z m -5.6667,1 h 4.6667 v -2 H 19 Z m 1,3.6666 v -4.6666 h -2 v 4.6666 z m 3.6667,-1 H 19 v 2 h 4.6667 z m 1,5.6667 v -4.6667 h -2 V 31 Z m 3.6666,-1 h -4.6666 v 2 h 4.6666 z m -1,-3.6667 V 31 h 2 v -4.6667 z m 5.6667,-1 h -4.6667 v 2 H 33 Z m -1,-3.6666 v 4.6666 h 2 v -4.6666 z m -3.6667,1 H 33 v -2 h -4.6667 z m -1,-5.6667 v 4.6667 h 2 V 17 Z"
         fill="#284161"
         mask="url(#path-3-inside-1_2680_191)"
         id="path5"
         style="stroke-width:1.05" />
    </g>
  </g>
</svg>
