<?xml version="1.0" encoding="UTF-8" standalone="no"?>
<svg
   width="32"
   height="32"
   viewBox="0 0 32 32"
   fill="none"
   version="1.1"
   id="svg4"
   sodipodi:docname="mActionRefresh.svg"
   inkscape:version="1.4 (e7c3feb100, 2024-10-09)"
   xmlns:inkscape="http://www.inkscape.org/namespaces/inkscape"
   xmlns:sodipodi="http://sodipodi.sourceforge.net/DTD/sodipodi-0.dtd"
   xmlns="http://www.w3.org/2000/svg"
   xmlns:svg="http://www.w3.org/2000/svg">
  <defs
     id="defs4" />
  <sodipodi:namedview
     id="namedview4"
     pagecolor="#505050"
     bordercolor="#eeeeee"
     borderopacity="1"
     inkscape:showpageshadow="0"
     inkscape:pageopacity="0"
     inkscape:pagecheckerboard="0"
     inkscape:deskcolor="#d1d1d1"
     showgrid="true"
     showguides="true"
     inkscape:zoom="22.627417"
     inkscape:cx="13.302446"
     inkscape:cy="14.208427"
     inkscape:window-width="1920"
     inkscape:window-height="1010"
     inkscape:window-x="0"
     inkscape:window-y="0"
     inkscape:window-maximized="1"
     inkscape:current-layer="svg4">
    <sodipodi:guide
       position="0,30"
       orientation="0,1"
       id="guide9"
       inkscape:locked="false"
       inkscape:label=""
       inkscape:color="rgb(0,134,229)" />
    <sodipodi:guide
       position="29.742679,16.620428"
       orientation="-1,0"
       id="guide10"
       inkscape:locked="false"
       inkscape:label=""
       inkscape:color="rgb(0,134,229)" />
    <sodipodi:guide
       position="32,2"
       orientation="0,1"
       id="guide11"
       inkscape:locked="false"
       inkscape:label=""
       inkscape:color="rgb(0,134,229)" />
    <sodipodi:guide
       position="2,0"
       orientation="-1,0"
       id="guide12"
       inkscape:locked="false"
       inkscape:label=""
       inkscape:color="rgb(0,134,229)" />
  </sodipodi:namedview>
  <g
     id="g12"
     transform="matrix(0.97825062,0,0,0.97863798,-0.4020905,-1.0321459)"
     style="stroke-width:1.02203">
    <path
       fill-rule="evenodd"
       clip-rule="evenodd"
       d="M 17.937441,13.740674 25.873538,11.614916 23.747132,3.6812379 21.369485,7.7980976 C 19.204753,6.8926005 16.815242,6.6446565 14.501629,7.0939079 11.962862,7.5868868 9.6536194,8.8926358 7.9228787,10.813792 c -1.7307501,1.921193 -2.7889153,4.353281 -3.0145605,6.92893 -0.2256546,2.575556 0.3934619,5.154594 1.7637843,7.347286 1.3703318,2.192691 3.4173825,3.879855 5.8317545,4.806467 2.414466,0.926707 5.064917,1.042498 7.551044,0.329958 2.486034,-0.71254 4.672519,-2.21472 6.229021,-4.279476 1.556502,-2.06485 2.3867,-4.569651 2.3867,-6.702526 l -2.905221,0.0034 c 0,1.486887 -0.62449,3.3902 -1.801307,4.951406 -1.176816,1.561205 -2.830028,2.696995 -4.709808,3.235754 -1.879687,0.53878 -3.883769,0.45123 -5.709214,-0.249448 C 11.719532,26.484868 10.171731,25.209188 9.1356393,23.551302 8.0995377,21.893415 7.6314195,19.943416 7.8020329,17.99605 7.9726558,16.048686 8.7727255,14.209676 10.08134,12.757108 c 1.308604,-1.452569 3.054667,-2.439825 4.974186,-2.8125603 1.626562,-0.3158466 3.302752,-0.175918 4.845787,0.3956763 z"
       fill="#7597c6"
       id="path17"
       style="display:inline;fill:#6c97c3;fill-opacity:1;stroke:#284161;stroke-width:2.04406;stroke-dasharray:none;stroke-opacity:1;paint-order:stroke fill markers"
       sodipodi:nodetypes="cccccccccccccscccccscc"
       inkscape:label="outer" />
    <path
       fill-rule="evenodd"
       clip-rule="evenodd"
       d="M 17.937441,13.740674 25.873538,11.614916 23.747132,3.6812379 21.369485,7.7980976 C 19.204753,6.8926005 16.815242,6.6446565 14.501629,7.0939079 11.962862,7.5868868 9.6536194,8.8926358 7.9228787,10.813792 c -1.7307501,1.921193 -2.7889153,4.353281 -3.0145605,6.92893 -0.2256546,2.575556 0.3934619,5.154594 1.7637843,7.347286 1.3703318,2.192691 3.4173825,3.879855 5.8317545,4.806467 2.414466,0.926707 5.064917,1.042498 7.551044,0.329958 2.486034,-0.71254 4.672519,-2.21472 6.229021,-4.279476 1.556502,-2.06485 2.3867,-4.569651 2.3867,-6.702526 l -2.905221,0.0034 c 0,1.486887 -0.62449,3.3902 -1.801307,4.951406 -1.176816,1.561205 -2.830028,2.696995 -4.709808,3.235754 -1.879687,0.53878 -3.883769,0.45123 -5.709214,-0.249448 C 11.719532,26.484868 10.171731,25.209188 9.1356393,23.551302 8.0995377,21.893415 7.6314195,19.943416 7.8020329,17.99605 7.9726558,16.048686 8.7727255,14.209676 10.08134,12.757108 c 1.308604,-1.452569 3.054667,-2.439825 4.974186,-2.8125603 1.626562,-0.3158466 3.302752,-0.175918 4.845787,0.3956763 z"
       fill="#7597c6"
       id="path18"
       style="display:inline;fill:#6c97c3;fill-opacity:1;stroke:none;stroke-width:2.04406;stroke-dasharray:none;stroke-opacity:1;paint-order:stroke fill markers"
       sodipodi:nodetypes="cccccccccccccscccccscc"
       inkscape:label="inner" />
  </g>
</svg>
