<?xml version="1.0" encoding="UTF-8" standalone="no"?>
<svg
   width="32"
   height="32"
   viewBox="0 0 32 32"
   fill="none"
   version="1.1"
   id="svg2"
   sodipodi:docname="mActionFilter.svg"
   inkscape:version="1.4 (e7c3feb100, 2024-10-09)"
   xmlns:inkscape="http://www.inkscape.org/namespaces/inkscape"
   xmlns:sodipodi="http://sodipodi.sourceforge.net/DTD/sodipodi-0.dtd"
   xmlns="http://www.w3.org/2000/svg"
   xmlns:svg="http://www.w3.org/2000/svg">
  <defs
     id="defs2" />
  <sodipodi:namedview
     id="namedview2"
     pagecolor="#505050"
     bordercolor="#eeeeee"
     borderopacity="1"
     inkscape:showpageshadow="0"
     inkscape:pageopacity="0"
     inkscape:pagecheckerboard="0"
     inkscape:deskcolor="#d1d1d1"
     showguides="true"
     inkscape:zoom="16"
     inkscape:cx="15.875"
     inkscape:cy="11.28125"
     inkscape:window-width="1920"
     inkscape:window-height="1010"
     inkscape:window-x="0"
     inkscape:window-y="0"
     inkscape:window-maximized="1"
     inkscape:current-layer="svg2">
    <sodipodi:guide
       position="32,30"
       orientation="0,1"
       id="guide2"
       inkscape:locked="false"
       inkscape:label=""
       inkscape:color="rgb(0,134,229)" />
    <sodipodi:guide
       position="2,33"
       orientation="-1,0"
       id="guide3"
       inkscape:locked="false"
       inkscape:label=""
       inkscape:color="rgb(0,134,229)" />
    <sodipodi:guide
       position="0,2"
       orientation="0,1"
       id="guide4"
       inkscape:locked="false"
       inkscape:label=""
       inkscape:color="rgb(0,134,229)" />
    <sodipodi:guide
       position="30,33"
       orientation="-1,0"
       id="guide5"
       inkscape:locked="false"
       inkscape:label=""
       inkscape:color="rgb(0,134,229)" />
  </sodipodi:namedview>
  <mask
     id="path-1-inside-1_2680_251"
     fill="#ffffff">
    <path
       d="m 18.3472,30.957 c 0,-0.0369 -0.0463,-0.067 -0.103,-0.067 -0.0982,0 -0.2082,-0.186 -1.2694,-2.1445 -0.7531,-1.39 -0.7027,-1.3288 -1.0893,-1.3249 -0.2039,0.002 -0.2339,0.0289 -0.5414,0.4854 -0.1791,0.2658 -0.7037,1.0327 -1.1658,1.7042 l -0.8401,1.2209 h -0.2491 c -0.2947,0 -1.0047,-0.1987 -1.8647,-0.5219 -0.9142,-0.3436 -1.0569,-0.4203 -1.0569,-0.5683 0,-0.0698 0.0535,-0.8526 0.1189,-1.7396 0.0654,-0.8869 0.125,-1.7793 0.1324,-1.9831 L 10.4323,25.6476 10.166,25.4486 9.89972,25.2496 8.1064,26.0083 C 6.90275,26.5176 6.24022,26.7677 6.09149,26.7691 5.90174,26.7709 5.83246,26.731 5.60932,26.4917 4.8877,25.7177 4.04686,24.5294 4.04724,24.2841 4.04743,24.1639 4.36808,23.6938 5.27141,22.4895 L 6.49533,20.8578 6.40421,20.6224 C 6.27401,20.286 6.24945,20.2595 6.03499,20.2232 4.84185,20.0214 2.65808,19.6349 2.42103,19.5835 L 2.11861,19.5181 2.08224,18.9229 C 1.98278,17.2951 1.9739,16.4835 2.0536,16.3034 2.12817,16.135 2.2481,16.0808 3.96634,15.4395 L 5.79952,14.7553 5.83498,14.5409 C 5.85448,14.423 5.87073,14.2853 5.87109,14.235 5.87145,14.1846 5.18323,13.5124 4.34173,12.7412 3.41557,11.8925 2.81172,11.2969 2.81172,11.2321 c 0,-0.2335 0.73686,-1.75567 1.21504,-2.51005 0.1759,-0.27751 0.21697,-0.30891 0.4039,-0.30891 0.11445,0 1.04823,0.18531 2.07507,0.41181 1.02684,0.2265 1.88365,0.41184 1.90403,0.41188 0.02037,3e-5 0.13414,-0.11842 0.25281,-0.26322 L 8.87834,8.71032 8.64382,7.81152 C 8.00284,5.35499 7.87252,4.83357 7.87252,4.72563 c 0,-0.07053 0.09951,-0.18829 0.2501,-0.29596 0.75005,-0.53629 2.22448,-1.31212 2.49368,-1.31212 0.1413,0 0.4004,0.23202 1.6185,1.44925 l 1.4503,1.44924 0.2567,-0.0388 c 0.1412,-0.02135 0.2853,-0.0579 0.3203,-0.08123 0.0349,-0.02332 0.336,-0.87731 0.669,-1.89776 0.5398,-1.65414 0.6219,-1.86311 0.7573,-1.927 0.1978,-0.09333 1.5726,-0.09537 2.5267,-0.00376 l 0.7213,0.06924 0.0568,0.21092 c 0.0312,0.116 0.1096,0.46246 0.1743,0.7699 0.2837,1.34977 0.6498,3.01899 0.6644,3.0293 0.0444,0.0314 0.5251,0.20689 0.5666,0.20689 0.0442,0 0.2431,-0.15738 1.6324,-1.2917 1.3414,-1.09528 1.6054,-1.29725 1.6954,-1.29725 0.1512,0 0.5362,0.21207 1.1852,0.65285 0.8517,0.57838 1.4059,1.0573 1.4261,1.23232 0.0092,0.07964 -0.2991,0.9921 -0.6851,2.02768 -0.4794,1.28602 -0.6857,1.91085 -0.6508,1.97113 0.0281,0.04855 0.1251,0.17571 0.2154,0.28258 l 0.1643,0.19435 0.764,-0.0908 c 2.0157,-0.2394 3.3291,-0.35273 3.4205,-0.29512 0.2036,0.1284 1.1391,2.48642 1.1391,2.87112 0,0.121 -0.2741,0.3512 -1.6624,1.3961 -0.9144,0.6882 -1.6718,1.2584 -1.6832,1.2671 -0.0114,0.0087 -0.003,0.1453 0.0188,0.3035 l 0.0396,0.2878 1.7064,0.8486 c 1.9917,0.9906 1.9176,0.9218 1.8514,1.7198 -0.0221,0.2652 -0.0627,0.7735 -0.0904,1.1295 -0.0276,0.356 -0.1061,0.8228 -0.1743,1.0374 l -0.124,0.3901 -0.6324,0.0405 c -1.1847,0.0757 -3.5586,0.2614 -3.5715,0.2793 -0.007,0.0099 -0.0805,0.1416 -0.1632,0.2929 l -0.1504,0.2749 1.0526,1.7429 c 0.5789,0.9585 1.0526,1.8055 1.0526,1.8821 0,0.197 -0.3698,0.6474 -1.2702,1.5473 -0.6402,0.6397 -0.8106,0.7796 -0.9498,0.7796 -0.1088,0 -0.8081,-0.3503 -1.9472,-0.9755 l -1.7774,-0.9755 -0.279,0.171 -0.279,0.1711 -0.0434,0.6721 c -0.0239,0.3696 -0.0599,1.3248 -0.08,2.1226 l -0.0366,1.4505 -0.6556,0.1929 c -0.4211,0.124 -0.8659,0.209 -1.244,0.2378 -0.3237,0.0247 -0.7407,0.0633 -0.9268,0.0858 -0.238,0.0289 -0.3384,0.0211 -0.3384,-0.0261 z m -0.9068,-10.13 c 0.9085,-0.2323 1.6508,-0.6778 2.3206,-1.3927 0.4856,-0.5182 0.7785,-1.0206 1.0055,-1.7245 0.1578,-0.4892 0.1805,-0.6434 0.1815,-1.2356 0.0018,-1.0057 -0.2348,-1.7624 -0.7974,-2.5505 -0.8835,-1.2377 -2.2658,-1.9802 -3.6865,-1.9802 -0.7104,0 -1.1787,0.1164 -1.9374,0.4817 -0.5451,0.2624 -0.6767,0.3586 -1.1818,0.863 -0.6066,0.6057 -0.8745,1.0182 -1.1332,1.7444 -0.3029,0.8505 -0.3401,1.5672 -0.1261,2.4305 0.5886,2.3754 3.0858,3.9441 5.3548,3.3639 z"
       id="path1" />
  </mask>
  <g
     id="g1"
     transform="matrix(0.96382314,0,0,0.96461109,0.09691809,0.09299915)"
     style="stroke-width:1.03711">
    <path
       d="M 4.3534762,2.5023913 H 28.646524 V 7.2338682 L 19.199229,16.764595 V 30.190474 L 13.800773,27.505298 V 16.764595 L 4.3534762,7.2338682 Z"
       fill="#6d97c4"
       stroke="#415a75"
       stroke-linecap="square"
       id="path1-6"
       style="display:inline;fill:#7497c5;fill-opacity:1;stroke-width:1.03711" />
    <path
       d="M 4.9933142,3.1405945 V 6.9698129 L 14.440334,16.500481 V 27.242736 L 15.5849,27.765531 V 15.852501 L 5.6575808,5.9551699 V 3.1405945 Z"
       fill="#ffffff"
       fill-opacity="0.497462"
       id="path2-7"
       style="display:inline;stroke-width:1.03711" />
    <path
       d="M 4.9933142,3.1405945 H 28.007782 V 6.9698129 H 4.9933142 Z"
       fill="#fce94f"
       id="path3"
       style="stroke-width:1.03711" />
    <path
       d="M 4.7243491,7.6080162 H 28.275652"
       fill="none"
       stroke="#415a75"
       id="path4"
       style="display:inline;stroke-width:1.03711" />
  </g>
</svg>
