<?xml version="1.0" encoding="UTF-8" standalone="no"?>
<svg
   height="48"
   width="48"
   version="1.1"
   id="svg4"
   sodipodi:docname="mActionIdentify.svg"
   inkscape:version="1.4.2 (ebf0e940d0, 2025-05-08)"
   xmlns:inkscape="http://www.inkscape.org/namespaces/inkscape"
   xmlns:sodipodi="http://sodipodi.sourceforge.net/DTD/sodipodi-0.dtd"
   xmlns="http://www.w3.org/2000/svg"
   xmlns:svg="http://www.w3.org/2000/svg">
  <defs
     id="defs4" />
  <sodipodi:namedview
     id="namedview4"
     pagecolor="#ffffff"
     bordercolor="#000000"
     borderopacity="0.25"
     inkscape:showpageshadow="2"
     inkscape:pageopacity="0.0"
     inkscape:pagecheckerboard="0"
     inkscape:deskcolor="#d1d1d1"
     showguides="true"
     inkscape:zoom="17.073682"
     inkscape:cx="10.688965"
     inkscape:cy="10.923244"
     inkscape:window-width="2560"
     inkscape:window-height="1368"
     inkscape:window-x="0"
     inkscape:window-y="0"
     inkscape:window-maximized="1"
     inkscape:current-layer="svg4">
    <sodipodi:guide
       position="0.50000077,46.999969"
       orientation="33.417967,0"
       id="guide10"
       inkscape:locked="false" />
    <sodipodi:guide
       position="0.50000077,13.582002"
       orientation="0,33.417967"
       id="guide11"
       inkscape:locked="false" />
    <sodipodi:guide
       position="33.917968,13.582002"
       orientation="-33.417967,0"
       id="guide12"
       inkscape:locked="false" />
    <sodipodi:guide
       position="33.917968,46.999969"
       orientation="0,-33.417967"
       id="guide13"
       inkscape:locked="false" />
  </sodipodi:namedview>
  <g
     id="g2"
     inkscape:label="ngw_logo"
     transform="matrix(2.0883619,0,0,2.0883619,0.49164732,1.000031)">
    <path
       id="path3_20_"
       fill="#31b7da"
       d="m 16.004,12.173 c 0,0.491 -0.312,1.046 -0.89,1.265 -0.577,0.219 -5.604,2.203 -6.285,2.405 -0.681,0.202 -0.951,0.216 -1.512,0 C 6.756,15.627 1.364,13.681 0.894,13.438 0.424,13.195 0.004,12.664 0.004,12.173 V 0.889 C 0.005,0.398 0.403,0 0.895,0 h 14.221 c 0.491,0 0.89,0.398 0.89,0.889 z" />
    <g
       id="g1">
	<path
   fill="#ffffff"
   d="M 7.505,12.5 V 11.733 C 7.156,11.371 6.842,10.948 6.594,10.442 6.892,10.367 7.196,10.321 7.505,10.293 v -0.5 C 7.126,9.825 6.753,9.882 6.39,9.979 6.069,9.169 5.879,8.239 5.851,7.25 H 7.505 V 6.75 H 5.851 C 5.869,6.121 5.954,5.517 6.096,4.949 6.567,5.099 7.06,5.183 7.562,5.218 7.662,4.887 7.92,4.64 8.255,4.551 V 1.871 C 8.98,2.43 9.562,3.323 9.923,4.405 9.808,4.445 9.689,4.467 9.572,4.5 h 1.357 c 0.391,-0.208 0.769,-0.445 1.113,-0.737 0.185,0.23 0.345,0.478 0.489,0.737 h 0.923 C 12.506,2.436 10.426,1 8.005,1 c -3.314,0 -6,2.686 -6,6 0,3.193 2.495,5.796 5.641,5.982 C 7.564,12.837 7.505,12.678 7.505,12.5 Z m 4.21,-9.133 C 11.31,3.711 10.867,3.993 10.393,4.211 10.083,3.292 9.618,2.504 9.04,1.905 10.077,2.115 11,2.638 11.715,3.367 Z M 7.755,4.726 C 7.23,4.703 6.722,4.605 6.233,4.446 6.563,3.428 7.089,2.575 7.755,2 Z M 7.157,1.886 C 6.556,2.504 6.074,3.327 5.761,4.287 5.231,4.062 4.745,3.743 4.298,3.363 5.053,2.594 6.047,2.07 7.157,1.886 Z M 3.968,3.763 C 4.47,4.19 5.027,4.534 5.626,4.781 5.465,5.402 5.37,6.063 5.351,6.75 H 2.83 C 2.885,5.62 3.302,4.592 3.968,3.763 Z M 2.83,7.25 H 5.351 C 5.379,8.283 5.577,9.259 5.912,10.117 5.422,10.291 4.958,10.536 4.52,10.832 3.533,9.934 2.899,8.67 2.83,7.25 Z m 2.095,3.916 c 0.374,-0.239 0.765,-0.443 1.179,-0.588 0.283,0.597 0.64,1.113 1.053,1.536 C 6.329,11.977 5.572,11.646 4.925,11.166 Z"
   id="path1" />

</g>
    <path
       fill="#ffffff"
       d="m 13.505,5 h -5 c -0.276,0 -0.5,0.224 -0.5,0.5 v 7 c 0,0.276 0.224,0.5 0.5,0.5 h 5 c 0.276,0 0.5,-0.224 0.5,-0.5 v -7 c 0,-0.276 -0.224,-0.5 -0.5,-0.5 z m -2.5,7 c -0.276,0 -0.5,-0.224 -0.5,-0.5 0,-0.276 0.224,-0.5 0.5,-0.5 0.276,0 0.5,0.224 0.5,0.5 0,0.276 -0.224,0.5 -0.5,0.5 z m 1.999,-3 h -4 V 8 h 4 z m 0,-2 h -4 V 6 h 4 z"
       id="path2" />
  </g>
  <g
     fill="#fff"
     id="g4">
    <path
       d="m45.323671 32.905232-22.310674-12.209237 9.580075 23.794352 3.814307-6.17746 7.541837 8.245634 2.856281-2.783856-7.710506-8.166641 6.228682-2.702792z"
       fill-rule="evenodd"
       stroke="#000"
       stroke-linecap="round"
       stroke-linejoin="round"
       stroke-width="1.2"
       id="path4" />
  </g>
</svg>
