<?xml version="1.0" encoding="UTF-8" standalone="no"?>
<svg
   width="33"
   height="33"
   viewBox="0 0 33 33"
   fill="none"
   version="1.1"
   id="svg7"
   sodipodi:docname="mActionExport.svg"
   inkscape:version="1.4 (e7c3feb100, 2024-10-09)"
   xmlns:inkscape="http://www.inkscape.org/namespaces/inkscape"
   xmlns:sodipodi="http://sodipodi.sourceforge.net/DTD/sodipodi-0.dtd"
   xmlns="http://www.w3.org/2000/svg"
   xmlns:svg="http://www.w3.org/2000/svg">
  <defs
     id="defs7" />
  <sodipodi:namedview
     id="namedview7"
     pagecolor="#505050"
     bordercolor="#eeeeee"
     borderopacity="1"
     inkscape:showpageshadow="0"
     inkscape:pageopacity="0"
     inkscape:pagecheckerboard="0"
     inkscape:deskcolor="#d1d1d1"
     inkscape:zoom="24.272727"
     inkscape:cx="16.520599"
     inkscape:cy="16.5"
     inkscape:window-width="1920"
     inkscape:window-height="1010"
     inkscape:window-x="0"
     inkscape:window-y="0"
     inkscape:window-maximized="1"
     inkscape:current-layer="svg7" />
  <mask
     id="path-5-inside-1_2679_152"
     fill="white">
    <path
       fill-rule="evenodd"
       clip-rule="evenodd"
       d="M26.3333 8L19 15.5L26.3333 23V19H33V12H26.3333V8Z"
       id="path5" />
  </mask>
  <g
     id="g1">
    <g
       id="g8"
       inkscape:label="logo">
      <path
         d="m 16.9415,24.9559 c -0.6252,0.1489 -1.2803,0.2382 -1.9651,0.2382 -4.8829,0 -9.02156,-4.0195 -9.02156,-9.2002 0,-5.1807 4.07906,-9.08116 8.99186,-9.08116 4.9127,0 8.8131,3.90046 8.8131,9.08116 0,0.8337 -0.1191,1.6673 -0.2977,2.4117 l 4.4959,4.4959 c 1.1612,-1.9949 1.8162,-4.3768 1.8162,-6.9374 C 29.7742,7.98462 23.4025,2 14.8573,2 6.37168,2 0,7.95484 0,15.9641 c 0,8.0688 6.37168,14.113 14.8573,14.113 2.2033,0 4.2577,-0.4169 6.074,-1.1314 z"
         id="path2"
         style="fill:#6c97c3;fill-opacity:1" />
      <path
         d="m 23.7904,21.0256 h -4.2279 v 4.3471 L 25.2196,31 h 4.5257 v -4.0791 z"
         id="path3"
         style="fill:#6c97c3;fill-opacity:1" />
      <path
         d="M 22.2727,19.5372 20.516,17.7805 h -4.1683 v 4.3471 l 1.7269,1.7566 v -4.347 z"
         id="path1"
         style="fill:#6c97c3;fill-opacity:1" />
      <path
         d="m 14.8595,16.2916 h 4.1387 l -2.0247,-1.9948 h -4.3173 v 4.1683 l 2.2033,2.2033 z"
         id="path4"
         style="fill:#6c97c3;fill-opacity:1" />
    </g>
    <g
       id="g7"
       inkscape:label="arrow">
      <path
         fill-rule="evenodd"
         clip-rule="evenodd"
         d="M 26.3333,8 19,15.5 26.3333,23 V 19 H 33 v -7 h -6.6667 z"
         fill="#12fd1a"
         id="path6" />
      <path
         d="M 19,15.5 18.285,14.8009 17.6014,15.5 18.285,16.1991 Z M 26.3333,8 h 1 V 5.5469 l -1.715,1.75398 z m 0,15 -0.715,0.6991 1.715,1.754 V 23 Z m 0,-4 v -1 h -1 v 1 z M 33,19 v 1 h 1 v -1 z m 0,-7 h 1 v -1 h -1 z m -6.6667,0 h -1 v 1 h 1 z m -6.6183,4.1991 7.3333,-7.49998 -1.43,-1.39824 -7.3333,7.50002 z m 7.3333,6.1018 -7.3333,-7.5 -1.43,1.3982 7.3333,7.5 z M 25.3333,19 v 4 h 2 V 19 Z M 33,18 h -6.6667 v 2 H 33 Z m -1,-6 v 7 h 2 v -7 z m -5.6667,1 H 33 v -2 h -6.6667 z m -1,-5 v 4 h 2 V 8 Z"
         fill="#284161"
         mask="url(#path-5-inside-1_2679_152)"
         id="path7" />
    </g>
  </g>
</svg>
