<?xml version="1.0" encoding="UTF-8" standalone="no"?>
<svg
   width="32"
   height="32"
   viewBox="0 0 32 32"
   fill="none"
   version="1.1"
   id="svg2"
   sodipodi:docname="mActionHelp.svg"
   inkscape:version="1.4 (e7c3feb100, 2024-10-09)"
   xmlns:inkscape="http://www.inkscape.org/namespaces/inkscape"
   xmlns:sodipodi="http://sodipodi.sourceforge.net/DTD/sodipodi-0.dtd"
   xmlns="http://www.w3.org/2000/svg"
   xmlns:svg="http://www.w3.org/2000/svg">
  <sodipodi:namedview
     id="namedview2"
     pagecolor="#505050"
     bordercolor="#eeeeee"
     borderopacity="1"
     inkscape:showpageshadow="0"
     inkscape:pageopacity="0"
     inkscape:pagecheckerboard="0"
     inkscape:deskcolor="#d1d1d1"
     showguides="true"
     inkscape:zoom="20.727273"
     inkscape:cx="13.364035"
     inkscape:cy="12.905702"
     inkscape:window-width="1920"
     inkscape:window-height="1010"
     inkscape:window-x="0"
     inkscape:window-y="0"
     inkscape:window-maximized="1"
     inkscape:current-layer="svg2">
    <sodipodi:guide
       position="0,30"
       orientation="0,1"
       id="guide2"
       inkscape:locked="false"
       inkscape:label=""
       inkscape:color="rgb(0,134,229)" />
    <sodipodi:guide
       position="32,2"
       orientation="0,1"
       id="guide3"
       inkscape:locked="false"
       inkscape:label=""
       inkscape:color="rgb(0,134,229)" />
  </sodipodi:namedview>
  <g
     clip-path="url(#clip0_2688_135)"
     id="g2"
     transform="matrix(0.98513606,0,0,0.98513606,-0.79996362,0.41931958)"
     style="stroke-width:1.01509">
    <path
       d="m 13.8604,21.1931 v -0.4449 c 0.0087,-1.5264 0.1439,-2.7431 0.4056,-3.6502 0.2704,-0.9072 0.6629,-1.6398 1.1775,-2.1981 0.5146,-0.5582 1.1339,-1.0641 1.8578,-1.5176 0.5408,-0.3489 1.0249,-0.7109 1.4523,-1.086 0.4274,-0.375 0.7676,-0.7893 1.0205,-1.2429 0.253,-0.4623 0.3794,-0.9769 0.3794,-1.54384 0,-0.60184 -0.1439,-1.12954 -0.4317,-1.5831 C 19.4339,7.4729 19.0458,7.12401 18.5573,6.87978 18.0776,6.63556 17.5456,6.51345 16.9612,6.51345 c -0.567,0 -1.1034,0.12647 -1.6093,0.37942 C 14.846,7.13709 14.4317,7.50343 14.109,7.99188 13.7862,8.4716 13.6118,9.06908 13.5856,9.78431 H 8.24759 C 8.2912,8.03985 8.70987,6.60067 9.5036,5.46677 10.2973,4.32415 11.3484,3.47372 12.6567,2.9155 c 1.3084,-0.56695 2.7519,-0.85043 4.3306,-0.85043 1.7358,0 3.2709,0.28784 4.6054,0.86351 1.3345,0.56695 2.3812,1.39121 3.14,2.47277 0.7589,1.08157 1.1383,2.38555 1.1383,3.91195 0,1.0205 -0.1701,1.9276 -0.5103,2.7214 -0.3314,0.785 -0.7981,1.4828 -1.3999,2.0933 -0.6018,0.6019 -1.3127,1.147 -2.1326,1.6354 -0.6891,0.41 -1.256,0.8374 -1.7008,1.2822 -0.4362,0.4449 -0.7632,0.9595 -0.9813,1.5439 -0.2093,0.5844 -0.3184,1.304 -0.3271,2.1587 v 0.4449 z m 2.5905,8.3734 c -0.8722,0 -1.618,-0.3053 -2.2373,-0.9159 -0.6105,-0.6192 -0.9114,-1.3606 -0.9027,-2.2241 -0.0087,-0.8548 0.2922,-1.5875 0.9027,-2.1981 0.6193,-0.6105 1.3651,-0.9158 2.2373,-0.9158 0.8286,0 1.5569,0.3053 2.1849,0.9158 0.6281,0.6106 0.9464,1.3433 0.9551,2.1981 -0.0087,0.5756 -0.1613,1.1033 -0.4579,1.5831 -0.2878,0.471 -0.6672,0.8504 -1.1382,1.1382 -0.471,0.2791 -0.9857,0.4187 -1.5439,0.4187 z"
       fill="#7597C6"
       id="path1"
       style="fill:#6c97c3;fill-opacity:1;stroke-width:1.01509" />
    <path
       d="m 13.8604,21.1931 h -0.4606 v 0.4605 h 0.4606 z m 0,-0.4449 -0.4606,-0.0026 v 0.0026 z m 0.4056,-3.6502 -0.4414,-0.1316 -0.0011,0.0039 z m 3.0353,-3.7157 0.2446,0.3903 0.0051,-0.0034 z m 1.4523,-1.086 -0.3038,-0.3461 v 0 z m 1.0205,-1.2429 0.4022,0.2243 0.0018,-0.0032 z M 19.7218,7.92646 19.3329,8.17323 v 0 z m -1.1645,-1.04668 -0.2089,0.41043 0.003,0.00149 z m -3.2054,0.01309 0.2002,0.41478 0.0058,-0.00287 z m -1.2429,1.09901 0.3821,0.25707 0.0021,-0.0032 z m -0.5234,1.79243 v 0.46049 h 0.444 l 0.0163,-0.44365 z m -5.33801,0 -0.4604,-0.01151 -0.0118,0.472 h 0.4722 z M 9.5036,5.46677 9.88089,5.73087 9.88183,5.72951 Z m 3.1531,-2.55127 0.1807,0.4236 0.0024,-0.00103 z m 8.936,0.01308 -0.1824,0.42288 0.0023,9.9e-4 z m 3.14,2.47277 -0.377,0.26451 v 0 z m 0.628,6.63335 -0.4233,-0.1815 -9e-4,0.0023 z m -1.3999,2.0933 0.3257,0.3257 0.0023,-0.0024 z m -2.1326,1.6354 0.2355,0.3958 2e-4,-10e-5 z m -1.7008,1.2822 -0.3257,-0.3256 -0.0032,0.0032 z m -0.9813,1.5439 -0.4315,-0.161 -0.0021,0.0057 z m -0.3271,2.1587 -0.4605,-0.0047 v 0.0047 z m 0,0.4449 v 0.4605 h 0.4606 v -0.4605 z m -4.6054,7.4575 -0.3279,0.3234 0.0046,0.0046 z m -0.9027,-2.2241 0.4606,0.0046 -10e-5,-0.0093 z m 0.9027,-2.1981 -0.3233,-0.3279 -0.0023,0.0023 z m 4.4222,0 -0.321,0.3302 v 0 z m 0.9551,2.1981 0.4607,0.0069 -10e-5,-0.0116 z m -0.4579,1.5831 -0.3917,-0.2422 -0.0013,0.002 z m -1.1382,1.1382 0.2348,0.3963 0.0053,-0.0033 z m -3.6739,-7.9547 v -0.4449 h -0.9211 v 0.4449 z m 0,-0.4422 c 0.0086,-1.5067 0.1426,-2.676 0.3876,-3.5253 l -0.885,-0.2553 c -0.2784,0.9649 -0.4148,2.2292 -0.4236,3.7753 z m 0.3864,-3.5214 c 0.2552,-0.8561 0.618,-1.5219 1.0748,-2.0174 l -0.6772,-0.6243 c -0.5725,0.6209 -0.9947,1.4204 -1.2803,2.3786 z m 1.0748,-2.0174 c 0.4836,-0.5246 1.0702,-1.0051 1.7637,-1.4396 l -0.489,-0.7805 c -0.7544,0.4726 -1.4063,1.004 -1.9519,1.5958 z m 1.7689,-1.4429 c 0.5574,-0.3595 1.0599,-0.7349 1.5064,-1.1267 l -0.6076,-0.6923 c -0.4083,0.3583 -0.8739,0.7069 -1.3981,1.0451 z m 1.5064,-1.1267 c 0.4631,-0.4065 0.838,-0.8611 1.1189,-1.3648 l -0.8044,-0.4486 c -0.225,0.4035 -0.5305,0.7774 -0.9221,1.1211 z m 1.1207,-1.368 c 0.2928,-0.5352 0.436,-1.1268 0.436,-1.76494 H 19.693 c 0,0.49574 -0.1098,0.93334 -0.3229,1.32274 z m 0.436,-1.76494 c 0,-0.67839 -0.1633,-1.29387 -0.5035,-1.82987 l -0.7777,0.49354 c 0.2355,0.37112 0.3601,0.81104 0.3601,1.33633 z M 20.1106,7.67969 C 19.7772,7.15427 19.3253,6.74885 18.7633,6.46786 L 18.3514,7.2917 c 0.4149,0.20746 0.7393,0.49983 0.9815,0.88153 z M 18.7663,6.46937 C 18.2164,6.18943 17.6118,6.05291 16.9612,6.05291 v 0.92107 c 0.5181,0 0.9776,0.1077 1.3872,0.31622 z M 16.9612,6.05291 c -0.6383,0 -1.2453,0.14304 -1.8153,0.42804 l 0.412,0.82383 c 0.4417,-0.22089 0.9076,-0.3308 1.4033,-0.3308 z M 15.1517,6.47813 C 14.5679,6.75998 14.0912,7.18338 13.7247,7.738 l 0.7685,0.50775 c 0.279,-0.42228 0.631,-0.73154 1.0589,-0.93814 z M 13.7269,7.73482 C 13.346,8.30097 13.154,8.98681 13.1254,9.76747 l 0.9205,0.03368 c 0.0237,-0.6498 0.1806,-1.15891 0.4452,-1.55221 z M 13.5856,9.32377 H 8.24759 V 10.2448 H 13.5856 Z M 8.70798,9.79582 C 8.74992,8.11833 9.15114,6.77337 9.88088,5.73087 L 9.12631,5.20267 C 8.2686,6.42797 7.83248,7.96137 7.78719,9.7728 Z M 9.88183,5.72951 C 10.625,4.65968 11.6069,3.86414 12.8374,3.33909 L 12.476,2.4919 C 11.0899,3.08331 9.96965,3.98862 9.12536,5.20403 Z M 12.8398,3.33807 c 1.2447,-0.53934 2.625,-0.81246 4.1475,-0.81246 V 1.60453 c -1.6349,0 -3.1416,0.29384 -4.5137,0.8884 z m 4.1475,-0.81246 c 1.685,0 3.1561,0.27936 4.423,0.82584 L 21.7751,2.50571 C 20.3729,1.90085 18.7738,1.60453 16.9873,1.60453 Z m 4.4253,0.82684 c 1.2633,0.53668 2.2385,1.30912 2.9431,2.31341 l 0.754,-0.52902 C 24.2967,3.97801 23.1786,3.10193 21.7728,2.50471 Z m 2.9431,2.31341 c 0.6964,0.99252 1.0548,2.20052 1.0548,3.64744 h 0.921 c 0,-1.60588 -0.4004,-3.00584 -1.2218,-4.17646 z m 1.0548,3.64744 c 0,0.9693 -0.1615,1.813 -0.4731,2.5399 l 0.8466,0.3629 c 0.3688,-0.8605 0.5475,-1.8311 0.5475,-2.9028 z m -0.474,2.5422 c -0.3087,0.731 -0.7425,1.3799 -1.3037,1.9492 l 0.656,0.6466 c 0.6425,-0.6518 1.1419,-1.3984 1.4962,-2.2375 z m -1.3013,1.9469 c -0.5719,0.5718 -1.2517,1.0941 -2.0427,1.5654 l 0.4714,0.7913 c 0.8488,-0.5056 1.5907,-1.0736 2.2226,-1.7054 z m -2.0425,1.5653 c -0.7134,0.4244 -1.3129,0.8742 -1.791,1.3523 l 0.6513,0.6513 c 0.4116,-0.4116 0.946,-0.8166 1.6107,-1.2121 z m -1.7942,1.3555 c -0.4813,0.4909 -0.8433,1.0606 -1.0839,1.7053 l 0.863,0.322 c 0.1955,-0.5241 0.4877,-0.9837 0.8786,-1.3825 z m -1.086,1.711 c -0.2318,0.6471 -0.3449,1.4212 -0.354,2.3093 l 0.921,0.0094 c 0.0084,-0.8213 0.1133,-1.4865 0.3002,-2.0081 z m -0.354,2.314 v 0.4449 h 0.9211 v -0.4449 z m 0.4605,-0.0157 h -4.9586 v 0.9211 h 4.9586 z m -2.3681,8.3734 c -0.7516,0 -1.3811,-0.2579 -1.9139,-0.7832 l -0.6467,0.6559 c 0.7057,0.6958 1.5678,1.0484 2.5606,1.0484 z M 14.5416,28.3273 C 14.0164,27.7947 13.7639,27.171 13.7714,26.4311 l -0.921,-0.0093 c -0.01,0.9871 0.3393,1.8463 1.0353,2.5522 z m -0.7702,-1.9055 c -0.0074,-0.7297 0.2439,-1.3437 0.7679,-1.8677 L 13.888,23.9028 c -0.6971,0.6971 -1.0476,1.5484 -1.0376,2.5284 z m 0.7656,-1.8654 c 0.5328,-0.5253 1.1623,-0.7833 1.9139,-0.7833 v -0.921 c -0.9928,0 -1.8549,0.3526 -2.5606,1.0484 z m 1.9139,-0.7833 c 0.7014,0 1.3165,0.2533 1.8639,0.7855 l 0.6421,-0.6604 c -0.7086,-0.6888 -1.5501,-1.0461 -2.506,-1.0461 z m 1.8639,0.7855 c 0.5424,0.5274 0.8082,1.1439 0.8156,1.8726 l 0.9211,-0.0094 c -0.0101,-0.9809 -0.381,-1.8298 -1.0946,-2.5236 z m 0.8157,1.8609 c -0.0075,0.4943 -0.1373,0.9405 -0.3892,1.3479 l 0.7834,0.4843 c 0.3413,-0.552 0.5168,-1.1612 0.5267,-1.8183 z M 18.74,27.7694 c -0.2497,0.4087 -0.5767,0.7357 -0.9854,0.9854 l 0.4803,0.786 c 0.5334,-0.3259 0.9652,-0.7577 1.2911,-1.2911 z m -0.98,0.9822 c -0.3985,0.2362 -0.8318,0.3543 -1.3091,0.3543 v 0.9211 c 0.6392,0 1.2351,-0.1609 1.7786,-0.483 z"
       fill="#284161"
       id="path2"
       style="stroke-width:1.01509" />
  </g>
  <defs
     id="defs2">
    <clipPath
       id="clip0_2688_135">
      <rect
         width="33"
         height="33"
         fill="#ffffff"
         id="rect2"
         x="0"
         y="0" />
    </clipPath>
  </defs>
</svg>
