<svg xmlns="http://www.w3.org/2000/svg" xml:space="preserve" width="48" height="48"><g style="fill:none" transform="translate(.5 1)scale(.52216)"><rect width="64" height="64" fill="#176fc1" rx="7.291"/><path fill="#fff" d="M17.992 47.796c0-.164.028-.324.036-.488-3.932-3.592-6.46-8.636-6.736-14.304h10.084c.06 2.252.34 4.424.784 6.5a9.5 9.5 0 0 1 1.808-1.052 34 34 0 0 1-.592-5.448h4.708c1.296-.856 2.816-1.376 4.452-1.376.972 0 1.932.176 2.836.512.636-.46 1.316-.82 2.016-1.136h-4.396v-6.048a25 25 0 0 0 7.228-1.368c.536 2.052.844 4.232.972 6.468.232-.012.464-.052.7-.052.444 0 .876.064 1.308.112-.132-2.532-.48-4.98-1.088-7.272a25 25 0 0 0 6.032-3.788c2.664 3.316 4.332 7.424 4.552 11.944H46.42c1.116.5 2.136 1.172 3.036 2h3.24c-.06 1.264-.272 2.488-.552 3.68.328.708.612 1.444.804 2.224.592.34 1.1.788 1.604 1.236A23.9 23.9 0 0 0 56 32C56 18.744 45.256 8 32 8S8 18.744 8 32c0 8.452 4.376 15.868 10.976 20.144a10.2 10.2 0 0 1-.984-4.348m28.84-30.324a23 23 0 0 1-5.288 3.376c-1.24-3.676-3.1-6.828-5.412-9.224 4.148.84 7.84 2.932 10.7 5.848m-13.84-5.984c2.9 2.236 5.228 5.808 6.672 10.136a22.9 22.9 0 0 1-6.672 1.284zm-2 19.516h-7.616c.072-2.516.412-4.932.98-7.204a25 25 0 0 0 6.636 1.156zm0-8.096a22.9 22.9 0 0 1-6.088-1.12c1.32-4.072 3.424-7.484 6.088-9.784zM28.6 11.548c-2.404 2.472-4.332 5.764-5.584 9.604-2.12-.9-4.064-2.176-5.852-3.696 3.02-3.076 6.996-5.172 11.436-5.908m-12.756 7.508a24.9 24.9 0 0 0 6.632 4.072 35.3 35.3 0 0 0-1.1 7.876H11.292c.22-4.52 1.888-8.632 4.552-11.948"/><path fill="#fff" d="M51.172 40.252c-.728-4.712-4.604-8.248-9.28-8.248-2.316 0-4.512.892-6.224 2.488a6.07 6.07 0 0 0-3.128-.864c-3.336 0-6.076 2.712-6.3 6.136-3.564.78-6.248 4.088-6.248 8.032 0 4.528 3.532 8.208 7.872 8.208h20.26c4.34 0 7.868-3.68 7.868-8.208 0-3.332-1.932-6.284-4.82-7.544"/></g><path fill="#fff" fill-rule="evenodd" stroke="#000" stroke-linecap="round" stroke-linejoin="round" stroke-width="1.2" d="M45.324 32.905 23.013 20.696l9.58 23.794 3.814-6.177 7.542 8.246 2.856-2.784-7.71-8.167z"/></svg>