<svg width="33" height="33" viewBox="0 0 33 33" fill="none" xmlns="http://www.w3.org/2000/svg">
<path d="M29.175 8.45H11.8057C11.4052 8.45 11.0315 8.25522 10.8012 7.92692L9.81878 6.52308C9.58848 6.19478 9.21485 6 8.81428 6H2.225C1.5488 6 1 6.5488 1 7.225V10.9H30.4V9.675C30.4 8.9988 29.8512 8.45 29.175 8.45Z" fill="#284161"/>
<path d="M1 12.125V29.275C1 29.9512 1.5488 30.5 2.225 30.5H29.175C29.8512 30.5 30.4 29.9512 30.4 29.275V12.125H1Z" fill="#7597C6"/>
<mask id="path-3-inside-1_2680_191" fill="white">
<path fill-rule="evenodd" clip-rule="evenodd" d="M28.3333 17H23.6667V21.6667H19V26.3333H23.6667V31H28.3333V26.3333H33V21.6667H28.3333V17Z"/>
</mask>
<path fill-rule="evenodd" clip-rule="evenodd" d="M28.3333 17H23.6667V21.6667H19V26.3333H23.6667V31H28.3333V26.3333H33V21.6667H28.3333V17Z" fill="#12FD1A"/>
<path d="M23.6667 17V16H22.6667V17H23.6667ZM28.3333 17H29.3333V16H28.3333V17ZM23.6667 21.6667V22.6667H24.6667V21.6667H23.6667ZM19 21.6667V20.6667H18V21.6667H19ZM19 26.3333H18V27.3333H19V26.3333ZM23.6667 26.3333H24.6667V25.3333H23.6667V26.3333ZM23.6667 31H22.6667V32H23.6667V31ZM28.3333 31V32H29.3333V31H28.3333ZM28.3333 26.3333V25.3333H27.3333V26.3333H28.3333ZM33 26.3333V27.3333H34V26.3333H33ZM33 21.6667H34V20.6667H33V21.6667ZM28.3333 21.6667H27.3333V22.6667H28.3333V21.6667ZM23.6667 18H28.3333V16H23.6667V18ZM24.6667 21.6667V17H22.6667V21.6667H24.6667ZM19 22.6667H23.6667V20.6667H19V22.6667ZM20 26.3333V21.6667H18V26.3333H20ZM23.6667 25.3333H19V27.3333H23.6667V25.3333ZM24.6667 31V26.3333H22.6667V31H24.6667ZM28.3333 30H23.6667V32H28.3333V30ZM27.3333 26.3333V31H29.3333V26.3333H27.3333ZM33 25.3333H28.3333V27.3333H33V25.3333ZM32 21.6667V26.3333H34V21.6667H32ZM28.3333 22.6667H33V20.6667H28.3333V22.6667ZM27.3333 17V21.6667H29.3333V17H27.3333Z" fill="#284161" mask="url(#path-3-inside-1_2680_191)"/>
</svg>
