<svg width="826" height="826" viewBox="0 0 826 826" fill="none" xmlns="http://www.w3.org/2000/svg">
<g clip-path="url(#clip0_1230_181)">
<path d="M826 628.276C826 653.573 809.996 682.482 780.054 693.84C750.111 705.197 490.954 807.415 455.332 818.256C420.227 828.581 406.289 829.614 377.379 818.256C348.469 806.899 70.21 706.746 45.9463 693.84C21.6825 681.45 0 653.573 0 628.276V45.9463C0 20.65 20.65 0 45.9463 0H780.054C805.35 0 826 20.65 826 45.9463V628.276Z" fill="#31B7DA"/>
<path d="M554.673 596.504C557.876 600.499 563.955 600.499 567.158 596.504L691.727 441.09C695.925 435.853 692.196 428.086 685.485 428.086H436.346C429.635 428.086 425.906 435.853 430.104 441.09L554.673 596.504Z" fill="white"/>
<rect width="96.7775" height="369.514" rx="48.3888" transform="matrix(1 0 0 -1 512.207 507.514)" fill="white"/>
<path d="M258.841 145.788C262.044 141.792 268.123 141.792 271.326 145.788L395.895 301.202C400.093 306.439 396.364 314.205 389.653 314.205H140.514C133.802 314.205 130.074 306.439 134.272 301.202L258.841 145.788Z" fill="white"/>
<rect x="216.375" y="234.777" width="96.7775" height="369.514" rx="48.3888" fill="white"/>
</g>
<defs>
<clipPath id="clip0_1230_181">
<rect width="826" height="826" fill="white"/>
</clipPath>
</defs>
</svg>
