<?xml version="1.0" encoding="utf-8"?>
<!-- Generator: Adobe Illustrator 22.0.1, SVG Export Plug-In . SVG Version: 6.00 Build 0)  -->
<svg version="1.1" id="Layer_1" xmlns="http://www.w3.org/2000/svg" xmlns:xlink="http://www.w3.org/1999/xlink" x="0px" y="0px"
	 viewBox="0 0 16 16" enable-background="new 0 0 16 16" xml:space="preserve">
<path id="path3_20_" fill="#31B7DA" d="M16.004,12.173c0,0.491-0.312,1.046-0.89,1.265
	c-0.577,0.219-5.604,2.203-6.285,2.405c-0.681,0.202-0.951,0.216-1.512,0c-0.561-0.216-5.953-2.162-6.423-2.405
	c-0.47-0.243-0.89-0.774-0.89-1.265V0.889C0.005,0.398,0.403,0,0.895,0h14.221c0.491,0,0.89,0.398,0.89,0.889L16.004,12.173
	L16.004,12.173z"/>
<g>
	<path fill="#FFFFFF" d="M7.505,12.5v-0.767c-0.349-0.362-0.663-0.785-0.911-1.291c0.298-0.075,0.602-0.121,0.911-0.149v-0.5
		C7.126,9.825,6.753,9.882,6.39,9.979c-0.321-0.81-0.511-1.74-0.539-2.729h1.654v-0.5H5.851c0.018-0.629,0.103-1.233,0.245-1.801
		C6.567,5.099,7.06,5.183,7.562,5.218c0.1-0.331,0.358-0.578,0.693-0.667v-2.68C8.98,2.43,9.562,3.323,9.923,4.405
		C9.808,4.445,9.689,4.467,9.572,4.5h1.357c0.391-0.208,0.769-0.445,1.113-0.737c0.185,0.23,0.345,0.478,0.489,0.737h0.923
		C12.506,2.436,10.426,1,8.005,1c-3.314,0-6,2.686-6,6c0,3.193,2.495,5.796,5.641,5.982C7.564,12.837,7.505,12.678,7.505,12.5z
		 M11.715,3.367c-0.405,0.344-0.848,0.626-1.322,0.844c-0.31-0.919-0.775-1.707-1.353-2.306C10.077,2.115,11,2.638,11.715,3.367z
		 M7.755,4.726C7.23,4.703,6.722,4.605,6.233,4.446C6.563,3.428,7.089,2.575,7.755,2V4.726z M7.157,1.886
		C6.556,2.504,6.074,3.327,5.761,4.287c-0.53-0.225-1.016-0.544-1.463-0.924C5.053,2.594,6.047,2.07,7.157,1.886z M3.968,3.763
		C4.47,4.19,5.027,4.534,5.626,4.781C5.465,5.402,5.37,6.063,5.351,6.75H2.83C2.885,5.62,3.302,4.592,3.968,3.763z M2.83,7.25h2.521
		c0.028,1.033,0.226,2.009,0.561,2.867c-0.49,0.174-0.954,0.419-1.392,0.715C3.533,9.934,2.899,8.67,2.83,7.25z M4.925,11.166
		c0.374-0.239,0.765-0.443,1.179-0.588c0.283,0.597,0.64,1.113,1.053,1.536C6.329,11.977,5.572,11.646,4.925,11.166z"/>
</g>
<path fill="#FFFFFF" d="M13.505,5h-5c-0.276,0-0.5,0.224-0.5,0.5v7c0,0.276,0.224,0.5,0.5,0.5h5c0.276,0,0.5-0.224,0.5-0.5v-7
	C14.005,5.224,13.781,5,13.505,5z M11.005,12c-0.276,0-0.5-0.224-0.5-0.5s0.224-0.5,0.5-0.5s0.5,0.224,0.5,0.5S11.281,12,11.005,12z
	 M13.004,9h-4V8h4V9z M13.004,7h-4V6h4V7z"/>
</svg>
