<?xml version="1.0" encoding="UTF-8" standalone="no"?>
<svg
   version="1.1"
   id="Layer_1"
   x="0px"
   y="0px"
   viewBox="0 0 122.88 120.64"
   style="enable-background:new 0 0 122.88 120.64"
   xml:space="preserve"
   sodipodi:docname="upgrade.svg"
   inkscape:version="1.4 (e7c3feb100, 2024-10-09)"
   xmlns:inkscape="http://www.inkscape.org/namespaces/inkscape"
   xmlns:sodipodi="http://sodipodi.sourceforge.net/DTD/sodipodi-0.dtd"
   xmlns="http://www.w3.org/2000/svg"
   xmlns:svg="http://www.w3.org/2000/svg"><defs
     id="defs1" /><sodipodi:namedview
     id="namedview1"
     pagecolor="#505050"
     bordercolor="#eeeeee"
     borderopacity="1"
     inkscape:showpageshadow="0"
     inkscape:pageopacity="0"
     inkscape:pagecheckerboard="0"
     inkscape:deskcolor="#d1d1d1"
     inkscape:zoom="2.7832032"
     inkscape:cx="19.042807"
     inkscape:cy="24.611929"
     inkscape:window-width="1920"
     inkscape:window-height="1010"
     inkscape:window-x="0"
     inkscape:window-y="0"
     inkscape:window-maximized="1"
     inkscape:current-layer="g1" /><g
     id="g1"
     style="fill:#00ae00;fill-opacity:1"><path
       d="m 98.081644,65.166484 c 1.25822,1.196467 2.886956,1.783122 4.515696,1.759965 1.62874,-0.02316 3.24205,-0.648408 4.46939,-1.883472 l 0.0926,-0.09263 c 1.15787,-1.219625 1.72137,-2.778893 1.69821,-4.330441 -0.0232,-1.551548 -0.63297,-3.095377 -1.82944,-4.284126 C 93.403841,42.70377 79.547975,29.218423 65.815615,15.671322 c -0.0386,-0.05403 -0.07719,-0.100349 -0.123506,-0.146664 -1.258221,-1.204186 -2.902399,-1.790841 -4.531139,-1.767684 -1.628739,0.02316 -3.24976,0.656127 -4.477104,1.891191 l -0.200698,0.208417 C 42.936068,29.357367 29.350371,42.819557 15.834147,56.3435 c -1.188748,1.188749 -1.798561,2.724859 -1.821718,4.276407 -0.02316,1.551548 0.54034,3.110816 1.705931,4.330441 l 0.115787,0.115787 c 1.219625,1.211906 2.825208,1.837156 4.446228,1.860314 1.621021,0.02316 3.25748,-0.563498 4.5157,-1.759965 L 61.284477,28.716678 Z M 96.537815,105.1285 c 1.250501,1.18875 2.879241,1.76768 4.500265,1.74453 1.62874,-0.0232 3.24204,-0.64841 4.46938,-1.88347 l 0.0926,-0.0926 c 1.15787,-1.21191 1.72137,-2.7789 1.70593,-4.33044 -0.0232,-1.551553 -0.63297,-3.103101 -1.82943,-4.28413 C 92.130182,82.943676 79.007635,69.149563 65.823334,55.62562 65.784739,55.571586 65.738424,55.517552 65.692109,55.463518 64.433888,54.26705 62.78971,53.680395 61.16097,53.703552 59.532231,53.72671 57.91121,54.35968 56.683866,55.594743 43.599914,69.103248 30.562277,82.665787 17.493764,96.197449 l -0.100349,0.09263 c -1.188749,1.181029 -1.790842,2.724858 -1.813999,4.276411 -0.02316,1.55154 0.54034,3.11081 1.705931,4.33044 l 0.115787,0.11578 c 1.219625,1.21191 2.825207,1.83716 4.446228,1.86032 1.62102,0.0232 3.257479,-0.5635 4.5157,-1.75997 L 61.284477,68.694133 Z"
       id="path1"
       style="fill:#00ae00;fill-opacity:1;stroke-width:1" /></g></svg>
