<svg xmlns="http://www.w3.org/2000/svg" id="collector_project" viewBox="0 0 24 24">
        <path style="fill:#3498DB"
              d="M14,24H2c-0.6,0-1-0.4-1-1V1c0-0.6,0.4-1,1-1h12c0.6,0,1,0.4,1,1v22C15,23.6,14.6,24,14,24z"/>
        <rect x="5" y="1" style="fill:#FFFFFF" width="6" height="1"/>
        <rect x="3" y="3" style="fill:#FFFFFF" width="10" height="17"/>
        <circle style="fill:#FFFFFF" cx="8" cy="22" r="1"/>
        <path style="fill:#DCE8F3"
              d="M22,24H12c-0.6,0-1-0.4-1-1V13c0-0.6,0.4-1,1-1h10c0.6,0,1,0.4,1,1v10C23,23.6,22.6,24,22,24z"/>
        <path style="fill:#00B066"
              d="M17,17.6c-1,0-2.8,1.2-2.8,3.1c0,2,2.1,0.5,2.8,0.5s2.8,1.4,2.8-0.5C19.8,18.8,18,17.6,17,17.6z"/>
        <path style="fill:#00B066" d="M18.668,14.261c-0.486-0.102-1,0.385-1.147,1.088c-0.147,0.703,0.128,1.355,0.614,1.457
	c0.487,0.102,1-0.385,1.147-1.088C19.43,15.016,19.155,14.363,18.668,14.261z"/>
        <path style="fill:#00B066" d="M20.594,16.538c-0.399-0.19-0.934,0.1-1.196,0.648s-0.151,1.147,0.248,1.337
	c0.399,0.19,0.934-0.1,1.196-0.648S20.993,16.728,20.594,16.538z"/>
        <path style="fill:#00B066" d="M16.487,15.422c-0.147-0.703-0.661-1.19-1.147-1.088c-0.486,0.102-0.761,0.754-0.614,1.457
	c0.147,0.703,0.661,1.19,1.147,1.088C16.359,16.777,16.634,16.125,16.487,15.422z"/>
        <path style="fill:#00B066" d="M14.62,17.14c-0.262-0.548-0.797-0.838-1.196-0.648c-0.399,0.19-0.51,0.789-0.248,1.337
	s0.797,0.838,1.196,0.648C14.771,18.287,14.882,17.688,14.62,17.14z"/>
    </svg>