<svg xmlns="http://www.w3.org/2000/svg" width="24" height="24">
  <path fill="#81b0dc" d="M3.111125 6.44445C3.111125 3.9888875 7.0889 2 12.000012 2c4.911113 0 8.888863 1.988875 8.888863 4.444425 0 2.4555625-3.97775 4.44445-8.888863 4.44445-4.911112 0-8.888887-1.988875-8.888887-4.444425Z"/>
  <path fill="#3498db" d="M3.111125 12.000013V8.666675c0 2.455563 3.9777375 4.44445 8.88885 4.44445 4.91115 0 8.8889-1.988887 8.8889-4.44445V12c0 2.45555-3.97775 4.4445-8.888863 4.4445-4.911112 0-8.888887-1.988938-8.888887-4.444487z"/>
  <path fill="#3498db" d="M3.111125 17.5555v-3.333287c0 2.455537 3.9777375 4.444412 8.88885 4.444412 4.91115 0 8.8889-1.988875 8.8889-4.444412v3.333412c0 2.4555-3.97775 4.444375-8.888863 4.444375-4.911112 0-8.888887-1.988875-8.888887-4.4445Z"/>
</svg>
