<svg xmlns="http://www.w3.org/2000/svg" 
id="gallery" width="24" height="24">
<path style=" stroke:none;fill-rule:nonzero;fill:rgb(86.27451%,90.980392%,95.294118%);fill-opacity:1;" d="M 0.480469 0 L 23.519531 0 L 23.519531 24 L 0.480469 24 Z M 0.480469 0 "/>
<path style=" stroke:none;fill-rule:nonzero;fill:rgb(86.27451%,90.980392%,95.294118%);fill-opacity:1;" d="M 1.199219 12.386719 L 22.800781 12.386719 L 22.800781 23.226562 L 1.199219 23.226562 Z M 1.199219 12.386719 "/>
<path style=" stroke:none;fill-rule:nonzero;fill:rgb(100%,100%,100%);fill-opacity:1;" d="M 0.480469 0 L 23.519531 0 L 23.519531 24 L 0.480469 24 Z M 1.199219 0.773438 L 1.199219 11.613281 L 22.800781 11.613281 L 22.800781 0.773438 Z M 1.199219 12.386719 L 1.199219 23.226562 L 22.800781 23.226562 L 22.800781 12.386719 Z M 1.199219 12.386719 "/>
<path style=" stroke:none;fill-rule:nonzero;fill:rgb(20.392157%,59.607843%,85.882353%);fill-opacity:1;" d="M 2.640625 13.933594 L 10.921875 13.933594 L 10.921875 21.675781 L 2.640625 21.675781 Z M 2.640625 2.324219 L 10.921875 2.324219 L 10.921875 10.066406 L 2.640625 10.066406 Z M 2.640625 2.324219 "/>
</svg>
