<svg xmlns="http://www.w3.org/2000/svg" viewBox="-467 269 24 24">
  <path fill="#aec8e0" d="M-445.2 271s-.4-.4 0 0c-.1-.1-.1-.1 0 0-.1-.1-.1-.1 0 0-.1-.1-.1-.1 0 0-.4-.4-.9-.1-.9-.1s-7.5 5.5-7.4 5.5l-2 1.6h5.7c2.3-3 4.6-6.3 4.6-6.3s.3-.4 0-.7zm-12.6 14.7c.1 0-.2-.1-.2-.1v-5.1c-1 1.3-1.6 1.9-2 3.2l2.2 2z"/>
  <path fill="#88d5ea" d="m-447.9 281.1 4.5.8v-4.2l-4.5-.8z"/>
  <path fill="#6eb8ea" d="m-452.9 282 4.4-.9v-4.2l-4.4 1z"/>
  <path fill="#88d5ea" d="m-458 281.2 4.6.8v-4.1l-4.6-.9zm10.1 4.6 4.5.8v-4.2l-4.5-.8z"/>
  <path fill="#6eb8ea" d="m-452.9 286.8 4.4-1v-4.2l-4.4 1z"/>
  <path fill="#88d5ea" d="m-458 285.9 4.6.9v-4.2l-4.6-.8zm10.1 4.6 4.5.9v-4.2l-4.5-.8z"/>
  <path fill="#6eb8ea" d="m-452.9 291.5 4.4-1v-4.1l-4.4.9z"/>
  <path fill="#88d5ea" d="m-458 290.7 4.6.8v-4.2l-4.6-.8z"/>
  <path fill="#00b066" d="M-460.6 284c-5.6.5-3.2 5.4-6.4 7 4.2 0 8.5-.8 8.7-4.7-.1-.2-2.3-2.3-2.3-2.3z"/>
</svg>