<svg width="24" height="24" viewBox="0 0 24 24" fill="none" xmlns="http://www.w3.org/2000/svg">
<g clip-path="url(#clip0_2666_133)">
<path d="M24.0014 22.2235V16.8965H16.8984V23.9995H22.2254C23.2024 23.9995 24.0014 23.2005 24.0014 22.2235Z" fill="#3498DB"/>
<path d="M6.659 16.2773C0.799 16.8103 3.285 22.2263 0 23.8243C4.262 24.6233 8.79 22.6703 8.967 18.5863C8.879 18.4083 6.659 16.2773 6.659 16.2773Z" fill="#00B066"/>
<path d="M23.5503 1.18469C23.1063 0.829688 22.6623 1.09569 22.6623 1.09569C22.6623 1.09569 17.9727 4.07669 16.5 5.49219L16 7.99219H16.9986C16.9986 7.99219 19.0241 7.95737 18.9986 7.99219C21.6626 4.35219 23.6383 2.07169 23.6383 2.07169C23.6383 2.07169 23.9063 1.62869 23.5503 1.18469Z" fill="#AEC8E0"/>
<path d="M16 9.79492V11V13C16 16 14.5 16.5 14.5 16.5C14.134 16.878 12.1172 16.8969 12.1172 16.8969H16.8962V9.79492H16Z" fill="#3498DB"/>
<path d="M24.0019 16.8979H16.8989V9.79492H22.2259C23.2029 9.79492 24.0019 10.5939 24.0019 11.5709V16.8979ZM12.1199 16.8979C12.1199 16.8979 11.6197 16.8979 11.7993 16.8979C11.7993 16.8979 9.94287 16.9089 9.79688 16.8979V22.2249C9.79688 23.2019 10.5959 24.0009 11.5729 24.0009H16.8999V16.8979H12.1199Z" fill="#DCE8F3"/>
<path d="M11.2194 8.83422L10.3344 7.94922H8.23438V10.1392L9.10437 11.0242V8.83422H11.2194Z" fill="#3498DB"/>
<path d="M8.535 11.565C8.22 11.64 7.89 11.685 7.545 11.685C5.085 11.685 3 9.66 3 7.05C3 4.44 5.055 2.475 7.53 2.475C10.005 2.475 11.97 4.44 11.97 7.05C11.97 7.47 11.91 7.89 11.82 8.265L14.085 10.53C14.67 9.525 15 8.325 15 7.035C15 3.015 11.79 0 7.485 0C3.21 0 0 3 0 7.035C0 11.1 3.21 14.145 7.485 14.145C8.595 14.145 9.63 13.935 10.545 13.575L8.535 11.565Z" fill="#3498DB"/>
<path d="M11.9855 9.58398H9.85547V11.774L12.7055 14.609H14.9855V12.554L11.9855 9.58398Z" fill="#3498DB"/>
<path d="M7.48891 7.20227H9.57391L8.55391 6.19727H6.37891V8.29727L7.48891 9.40727V7.20227Z" fill="#3498DB"/>
</g>
<defs>
<clipPath id="clip0_2666_133">
<rect width="24" height="24" fill="white"/>
</clipPath>
</defs>
</svg>
