<svg width="24" height="24" viewBox="0 0 24 24" fill="none" xmlns="http://www.w3.org/2000/svg">
<path d="M21.5 4.49972L22.5 2.99973C22.5 2.99973 22.8 2.29902 22.5 1.99902C22.1 1.59902 21.122 1.90646 21 1.99887C20.6076 2.29611 20 2.5 19.5 3C19.5 3 20.5 3.5 21 4C21.5 4.5 21.5 4.49972 21.5 4.49972Z" fill="#AEC8E0"/>
<path d="M6.39999 15C0.799994 15.5 3.2 20.4 0 22C4.2 22 8.50001 21.2 8.70001 17.3C8.60001 17.1 6.39999 15 6.39999 15Z" fill="#00B066"/>
<path d="M19.4878 12.6763L18.5186 11.707H16.2188V14.1054L17.1715 15.0747V12.6763H19.4878Z" fill="#3498DB"/>
<path d="M16.5465 15.6656C16.2015 15.7477 15.8401 15.797 15.4622 15.797C12.7681 15.797 10.4847 13.5793 10.4847 10.7209C10.4847 7.86254 12.7353 5.71054 15.4458 5.71054C18.1564 5.71054 20.3084 7.86254 20.3084 10.7209C20.3084 11.1809 20.2426 11.6409 20.1441 12.0515L22.6246 14.5321C23.2653 13.4315 23.6267 12.1173 23.6267 10.7045C23.6267 6.30193 20.1112 3 15.3965 3C10.7147 3 7.19922 6.2855 7.19922 10.7045C7.19922 15.1563 10.7147 18.4911 15.3965 18.4911C16.6122 18.4911 17.7457 18.2611 18.7477 17.8669L16.5465 15.6656Z" fill="#3498DB"/>
<path d="M20.3249 13.498H17.9922V15.8965L21.1134 19.0013H23.6104V16.7507L20.3249 13.498Z" fill="#3498DB"/>
<path d="M15.3992 10.8858H17.6826L16.5656 9.78516H14.1836V12.085L15.3992 13.3006V10.8858Z" fill="#3498DB"/>
<path d="M13.5 9L16.4997 6.49902C16.4997 6.49902 17.479 6.66822 18 7C18.4659 7.29664 18.5 7.5 18.5 7.5L17 9L13.5 9Z" fill="#AEC8E0"/>
<path d="M13.4922 9L11.11 11.5C11.11 11.5 11.2146 12.4522 11.5 13C11.7552 13.4898 12 13.5 12 13.5L13.1891 12.4869L13.4922 9Z" fill="#AEC8E0"/>
</svg>
