<svg xmlns="http://www.w3.org/2000/svg" width="24" height="24">
  <path fill="#9bcbdd" d="M21.998693 17.610793 22 15.16231l-5.141765.0025-4.722108-2.062274c-.08629-.0375-.185642-.0375-.271927 0l-4.7325674 2.068523-5.131306.0025.00261 2.398488h.00915c-.018303.127486.035298.263721.1791054.327464l8.993186 3.93082c.517706.226225 1.112545.226225 1.630252 0l8.993185-3.93082c.118968-.05249.176491-.156233.184335-.262471h.0052v-.01875c.0013-.0038.0013-.005.0013-.0075z"/>
  <path fill="#dce8f3" d="m11.184384 10.899027-8.9931859 3.93082c-.2549311.111238-.2549311.45745 0 .568688l8.9931859 3.93082c.517706.226225 1.112545.226225 1.630252 0l8.993185-3.93082c.254931-.111238.254931-.45745 0-.568688l-8.991878-3.93082c-.517706-.226226-1.113853-.226226-1.631559 0z"/>
  <path fill="#009e56" d="M12.976746 2h-2.099587l.02745.703673c-.882454.6611777-1.4720636 1.7335604-1.4720636 3.0059213 0 2.4872279 1.6250226 3.6421016 2.6774306 6.0780857l-.713807.491196-.423578 3.46962 2.05383-.898651c.07583 0 .151651-.07999.151651-.238724.607917-4.6632403 3.443535-5.7231244 3.443535-8.9027766C16.420277 3.6960645 14.799176 2 12.976746 2Z"/>
  <path fill="#00b066" d="M10.922916 2C8.9985128 2 7.3774123 3.701064 7.3774123 5.968316c0 3.5146156 2.8356187 4.535754 3.4435317 9.525208 0 .339963.303302.339963.303302 0 .607913-4.989454 3.443531-6.1230801 3.443531-9.525208C14.36514 3.8148015 12.745347 2 10.922916 2Z"/>
  <path fill="#fff" d="M12.340072 6.0820535c0 1.0198885-.708578 1.701064-1.519128 1.701064-.810551 0-1.4171561-.7936632-1.4171561-1.701064 0-1.0198884.7085781-1.5873264 1.4184631-1.5873264.809243-.1137375 1.517821.6799257 1.517821 1.5873264z"/>
</svg>
