<svg xmlns="http://www.w3.org/2000/svg" width="24" height="24">
  <path fill="#00b066" d="M7.8575 14.452042C2.7025 14.93399 4.89 19.833159 2 21.27772 5.74875 22 9.7325 20.23414 9.88875 16.540486c-.07875-.16065-2.03125-2.088444-2.03125-2.088444Z"/>
  <path fill="#aec8e0" d="m10.35625 15.978855-1.9525-2.007477c.625-2.168126 2.81125-4.3362523 5.93625-6.7447103 3.28-2.4894255 6.71625-5.1395004 6.71625-5.1395004s.39125-.241617.78125.079682c.3125.4009813.0775.8032478.0775.8032478s-2.655 3.6139723-4.99875 6.9053602c-2.3425 3.2117057-4.45125 5.4607997-6.56 6.1033977z"/>
  <path fill="#dce8f3" d="m16.375 9.66211484-5.625 2.643649 5.625 2.64364899 5.625-2.643649z"/>
  <path fill="#3498db" d="m16.375 22.00000028 5.625-2.643649v-7.05058745l-5.625 2.643649z"/>
  <path fill="#81b0dc" d="m16.375 22.00000028-5.625-2.643649v-7.05058745l5.625 2.643649z"/>
</svg>
