<svg xmlns="http://www.w3.org/2000/svg" width="24" height="24">
  <path fill="#7caed6" d="m17 16.5625 5-2.28625-5-7.755z"/>
  <path fill="#699ec9" d="m17 16.5625 5-2.28625-5-1.08875z"/>
  <path fill="#c1d5e0" d="m17 16.5625-5-1.66125 5-8.38z"/>
  <path fill="#b2cbd8" d="m17 16.5625-5-1.66125 5-1.71375z"/>
  <path fill="#7caed6" d="m9.5 20 7.5-3.42875L9.5 4z"/>
  <path fill="#c1d5e0" d="M9.5 20 2 16.57125 9.5 4z"/>
  <path fill="#699ec9" d="m9.5 20 7.5-3.42875L9.5 14z"/>
  <path fill="#b2cbd8" d="M9.5 20 2 16.57125 9.5 14z"/>
  <path fill="#75a9d3" d="M14.0025 11.54625 12 14.90125 16.99375 16.56z"/>
  <path fill="#5c95bc" d="M15.32375 13.7625 12 14.90125 16.99375 16.56z"/>
</svg>
