<svg xmlns="http://www.w3.org/2000/svg" width="24" height="24">
  <path fill="#dce8f3" d="M11.9718345 2 7.59679526 4l4.37503926 2 4.37503925-2z"/>
  <path fill="#3498db" d="m11.9718345 15.08375 4.37503926-2V4L11.9718345 6z"/>
  <path fill="#81b0dc" d="m11.9718345 15.08375-4.37503925-2V4l4.37503926 2z"/>
  <path fill="#dce8f3" d="m17.62496105 7.54125-4.37503925 2 4.37503925 2 4.37503925-2z"/>
  <path fill="#3498db" d="m17.62496105 19.375 4.37503925-2V9.54125l-4.37503925 2z"/>
  <path fill="#81b0dc" d="m17.62496105 19.375-4.37503925-2V9.54125l4.37503925 2z"/>
  <path fill="#dce8f3" d="m6.37503894 8.79125-4.37503925 2 4.37503925 2 4.37503925-2z"/>
  <path fill="#3498db" d="m6.37503894 19.375 4.37503925-2v-6.58375l-4.37503925 2z"/>
  <path fill="#81b0dc" d="m6.37503894 19.375-4.37503925-2v-6.58375l4.37503925 2z"/>
  <path fill="#dce8f3" d="m11.95305751 14.54125-4.37503925 2 4.37503925 2 4.37503926-2z"/>
  <path fill="#3498db" d="m11.95305751 22 4.37503926-2v-3.45875l-4.37503926 2z"/>
  <path fill="#81b0dc" d="m11.95305751 22-4.37503925-2v-3.45875l4.37503925 2z"/>
</svg>
