<svg xmlns="http://www.w3.org/2000/svg" viewBox="0 0 24 24">
  <path fill="#aec8e0" d="M6.833 0h2v24h-2zm4 0h2v24h-2zm4 0h2v24h-2z"/>
  <path fill="#3498db" d="M18.833 20h-14c-.552 0-1-.448-1-1V5c0-.552.448-1 1-1h14c.552 0 1 .448 1 1v14c0 .552-.447 1-1 1z"/>
  <path fill="#fff" d="M11.833 7C9.65 7 7.875 8.741 7.875 10.881c0 .846.273 1.649.786 2.321l2.673 3.549c.118.157.303.249.499.249s.381-.092.499-.249l2.67-3.545c.516-.675.789-1.479.789-2.325C15.792 8.741 14.016 7 11.833 7zm0 5.6c-.948 0-1.719-.771-1.719-1.719s.771-1.719 1.719-1.719 1.719.771 1.719 1.719-.771 1.719-1.719 1.719z"/>
</svg>