<svg xmlns="http://www.w3.org/2000/svg" viewBox="0 0 24 24">
  <path fill="#3498db" d="m8.001 3.573-.802-1.146C7.011 2.159 6.706 2 6.379 2H1c-.552 0-1 .448-1 1v3h24V5c0-.552-.448-1-1-1H8.821c-.327 0-.632-.159-.82-.427z"/>
  <path fill="#aec8e0" d="M15.136 9H16.5v15h-1.364zm2.728 0h1.364v15h-1.364zm2.727 0h1.364v15h-1.364z"/>
  <path fill="#3498db" d="M23 21.955h-8.909c-.552 0-1-.448-1-1v-8.909c0-.552.448-1 1-1H23c.552 0 1 .448 1 1v8.909c0 .552-.448 1-1 1z"/>
  <path fill="#fff" d="M18.545 13.091c-1.488 0-2.699 1.187-2.699 2.646 0 .577.186 1.125.536 1.583l1.823 2.42c.08.107.207.17.34.17s.26-.063.34-.17l1.821-2.417c.352-.46.538-1.009.538-1.585 0-1.46-1.21-2.647-2.699-2.647zm0 3.818c-.646 0-1.172-.526-1.172-1.172 0-.646.526-1.172 1.172-1.172.646 0 1.172.526 1.172 1.172 0 .646-.525 1.172-1.172 1.172z"/>
  <path fill="#68ace0" d="M12.091 20.955v-8.909c0-1.103.897-2 2-2h.045V9c0-.552.448-1 1-1h6.82c.552 0 1 .448 1 1v1.045H23c.366 0 .705.106 1 .278V7H0v14c0 .552.448 1 1 1h11.394c-.189-.305-.303-.661-.303-1.045z"/>
</svg>