<svg xmlns="http://www.w3.org/2000/svg" width="40" height="40" fill="#fff" viewBox="0 -960 960 960"><path d="M268.114-192v-576h232.118q67.536 0 119.654 42.51 52.117 42.522 52.117 110.747 0 43.54-22.289 74.911t-53.146 47.15v4.114q38.057 13.371 66.693 48.343 28.625 34.971 28.625 86.4 0 77.143-58.29 119.479Q575.319-192 507.772-192Zm100.46-90.514h134.394q42.521 0 65.314-25.54 22.804-25.55 22.804-55.378 0-29.14-22.804-54.679-22.793-25.55-66.343-25.55H368.575Zm0-247.547h125.137q35.321 0 57.95-21.6 22.628-21.6 22.628-52.796 0-32.225-23.318-53.486-23.317-21.26-56.571-21.26H368.575Z" style="stroke-width:1.02857"/></svg>