<?xml version="1.0" encoding="UTF-8" standalone="no"?>
<!-- Created with Inkscape (http://www.inkscape.org/) -->

<svg
   xmlns:dc="http://purl.org/dc/elements/1.1/"
   xmlns:cc="http://creativecommons.org/ns#"
   xmlns:rdf="http://www.w3.org/1999/02/22-rdf-syntax-ns#"
   xmlns:svg="http://www.w3.org/2000/svg"
   xmlns="http://www.w3.org/2000/svg"
   xmlns:xlink="http://www.w3.org/1999/xlink"
   xmlns:sodipodi="http://sodipodi.sourceforge.net/DTD/sodipodi-0.dtd"
   xmlns:inkscape="http://www.inkscape.org/namespaces/inkscape"
   width="128"
   height="128"
   id="svg2"
   version="1.1"
   inkscape:version="0.48.5 r10040"
   sodipodi:docname="publishtongw.svg"
   inkscape:export-filename="/home/alex/ng.png"
   inkscape:export-xdpi="47.124031"
   inkscape:export-ydpi="47.124031">
  <defs
     id="defs4">
    <radialGradient
       gradientUnits="userSpaceOnUse"
       gradientTransform="matrix(1,0,0,0.315315,0,26.81305)"
       r="19.622213"
       fy="39.161163"
       fx="25.455845"
       cy="39.161163"
       cx="25.455845"
       id="radialGradient3262"
       xlink:href="#linearGradient3256"
       inkscape:collect="always" />
    <linearGradient
       id="linearGradient3256"
       inkscape:collect="always">
      <stop
         id="stop3258"
         offset="0"
         style="stop-color:#000000;stop-opacity:1;" />
      <stop
         id="stop3260"
         offset="1"
         style="stop-color:#000000;stop-opacity:0;" />
    </linearGradient>
    <linearGradient
       gradientTransform="matrix(1.241935,0,0,1.241935,-5.027508,-7.208988)"
       y2="39.684914"
       x2="34.534348"
       y1="12.284524"
       x1="14.462892"
       gradientUnits="userSpaceOnUse"
       id="linearGradient3281"
       xlink:href="#linearGradient3264"
       inkscape:collect="always" />
    <linearGradient
       id="linearGradient3264">
      <stop
         id="stop3266"
         offset="0"
         style="stop-color:#c9c9c9;stop-opacity:1;" />
      <stop
         style="stop-color:#f8f8f8;stop-opacity:1;"
         offset="0.25"
         id="stop3276" />
      <stop
         style="stop-color:#e2e2e2;stop-opacity:1;"
         offset="0.5"
         id="stop3272" />
      <stop
         id="stop3274"
         offset="0.75"
         style="stop-color:#b0b0b0;stop-opacity:1;" />
      <stop
         id="stop3268"
         offset="1"
         style="stop-color:#c9c9c9;stop-opacity:1;" />
    </linearGradient>
    <linearGradient
       inkscape:collect="always"
       xlink:href="#linearGradient2180"
       id="linearGradient1340"
       gradientUnits="userSpaceOnUse"
       gradientTransform="matrix(11.89675,0,0,8.652534,-56.333444,831.98911)"
       x1="8.8207808"
       y1="12.53757"
       x2="12.499243"
       y2="24.238262" />
    <linearGradient
       inkscape:collect="always"
       id="linearGradient2180">
      <stop
         style="stop-color:#ffffff;stop-opacity:1;"
         offset="0"
         id="stop2182" />
      <stop
         style="stop-color:#ffffff;stop-opacity:0;"
         offset="1"
         id="stop2184" />
    </linearGradient>
    <radialGradient
       inkscape:collect="always"
       xlink:href="#linearGradient2222"
       id="radialGradient2229"
       cx="23.994133"
       cy="32.266911"
       fx="23.994133"
       fy="32.266911"
       r="19.088932"
       gradientTransform="matrix(1.768625,0,0,1.387102,-6.9519948,-38.185262)"
       gradientUnits="userSpaceOnUse" />
    <linearGradient
       id="linearGradient2222">
      <stop
         style="stop-color:#5187d6;stop-opacity:1;"
         offset="0"
         id="stop2224" />
      <stop
         style="stop-color:#1e4580;stop-opacity:1;"
         offset="1"
         id="stop2227" />
    </linearGradient>
    <linearGradient
       inkscape:collect="always"
       xlink:href="#linearGradient3264"
       id="linearGradient3888"
       gradientUnits="userSpaceOnUse"
       gradientTransform="matrix(2.6832199,0,0,2.6832199,113.9505,996.27808)"
       x1="14.462892"
       y1="12.284524"
       x2="34.534348"
       y2="39.684914" />
    <radialGradient
       inkscape:collect="always"
       xlink:href="#linearGradient3256"
       id="radialGradient3891"
       gradientUnits="userSpaceOnUse"
       gradientTransform="matrix(1,0,0,0.315315,0,26.81305)"
       cx="25.455845"
       cy="39.161163"
       fx="25.455845"
       fy="39.161163"
       r="19.622213" />
    <linearGradient
       inkscape:collect="always"
       xlink:href="#linearGradient3264"
       id="linearGradient3899"
       x1="-109"
       y1="1079.3622"
       x2="-4"
       y2="1079.3622"
       gradientUnits="userSpaceOnUse"
       gradientTransform="translate(-2.0082528,0)" />
    <linearGradient
       inkscape:collect="always"
       xlink:href="#linearGradient3264"
       id="linearGradient3907"
       x1="-92"
       y1="155"
       x2="-21"
       y2="155"
       gradientUnits="userSpaceOnUse"
       gradientTransform="translate(-2.0082514,924.36218)" />
    <linearGradient
       inkscape:collect="always"
       xlink:href="#linearGradient3264-7"
       id="linearGradient3899-7"
       x1="-109"
       y1="1079.3622"
       x2="-4"
       y2="1079.3622"
       gradientUnits="userSpaceOnUse" />
    <linearGradient
       id="linearGradient3264-7">
      <stop
         id="stop3266-1"
         offset="0"
         style="stop-color:#c9c9c9;stop-opacity:1;" />
      <stop
         style="stop-color:#f8f8f8;stop-opacity:1;"
         offset="0.25"
         id="stop3276-2" />
      <stop
         style="stop-color:#e2e2e2;stop-opacity:1;"
         offset="0.5"
         id="stop3272-6" />
      <stop
         id="stop3274-0"
         offset="0.75"
         style="stop-color:#b0b0b0;stop-opacity:1;" />
      <stop
         id="stop3268-4"
         offset="1"
         style="stop-color:#c9c9c9;stop-opacity:1;" />
    </linearGradient>
    <radialGradient
       inkscape:collect="always"
       xlink:href="#linearGradient3256"
       id="radialGradient3958"
       gradientUnits="userSpaceOnUse"
       gradientTransform="matrix(1,0,0,0.315315,0,26.81305)"
       cx="25.455845"
       cy="39.161163"
       fx="25.455845"
       fy="39.161163"
       r="19.622213" />
    <linearGradient
       inkscape:collect="always"
       xlink:href="#linearGradient3264"
       id="linearGradient3960"
       gradientUnits="userSpaceOnUse"
       gradientTransform="translate(-2.0082514,924.36218)"
       x1="-92"
       y1="155"
       x2="-21"
       y2="155" />
    <linearGradient
       inkscape:collect="always"
       xlink:href="#linearGradient3264"
       id="linearGradient3962"
       gradientUnits="userSpaceOnUse"
       gradientTransform="translate(-2.0082528,0)"
       x1="-109"
       y1="1079.3622"
       x2="-4"
       y2="1079.3622" />
    <clipPath
       clipPathUnits="userSpaceOnUse"
       id="clipPath532">
      <path
         inkscape:connector-curvature="0"
         d="M 0,96 96,96 96,0 0,0 0,96 z"
         id="path534" />
    </clipPath>
    <clipPath
       clipPathUnits="userSpaceOnUse"
       id="clipPath544">
      <path
         inkscape:connector-curvature="0"
         d="M 0,96 96,96 96,0 0,0 0,96 z"
         id="path546" />
    </clipPath>
    <clipPath
       clipPathUnits="userSpaceOnUse"
       id="clipPath560">
      <path
         inkscape:connector-curvature="0"
         d="M 0,96 96,96 96,0 0,0 0,96 z"
         id="path562" />
    </clipPath>
    <filter
       color-interpolation-filters="sRGB"
       inkscape:collect="always"
       id="filter2826">
      <feGaussianBlur
         inkscape:collect="always"
         stdDeviation="2.40001"
         id="feGaussianBlur2828" />
    </filter>
    <radialGradient
       inkscape:collect="always"
       xlink:href="#XMLID_23_"
       id="radialGradient2894"
       gradientUnits="userSpaceOnUse"
       gradientTransform="translate(145.71379,-238.21429)"
       cx="59.5107"
       cy="124"
       r="125.1714" />
    <radialGradient
       id="XMLID_23_"
       cx="59.5107"
       cy="124"
       r="125.1714"
       gradientUnits="userSpaceOnUse"
       gradientTransform="translate(145.71379,-238.21429)">
      <stop
         offset="0.1775"
         style="stop-color:#F0F0F0"
         id="stop9" />
      <stop
         offset="0.5325"
         style="stop-color:#A5A5BB"
         id="stop11" />
    </radialGradient>
    <linearGradient
       inkscape:collect="always"
       xlink:href="#XMLID_24_"
       id="linearGradient2896"
       gradientUnits="userSpaceOnUse"
       gradientTransform="translate(145.71379,-238.21429)"
       x1="60.0005"
       y1="12.8452"
       x2="60.0005"
       y2="120.2141" />
    <linearGradient
       id="XMLID_24_"
       gradientUnits="userSpaceOnUse"
       x1="60.0005"
       y1="12.8452"
       x2="60.0005"
       y2="120.2141"
       gradientTransform="translate(145.71379,-238.21429)">
      <stop
         offset="0"
         style="stop-color:#FFFFFF"
         id="stop16" />
      <stop
         offset="1"
         style="stop-color:#ffffff;stop-opacity:0;"
         id="stop18" />
    </linearGradient>
    <linearGradient
       inkscape:collect="always"
       xlink:href="#XMLID_25_"
       id="linearGradient2898"
       gradientUnits="userSpaceOnUse"
       gradientTransform="translate(145.71379,-238.21429)"
       x1="60.001499"
       y1="94"
       x2="60.001499"
       y2="26.0005" />
    <linearGradient
       id="XMLID_25_"
       gradientUnits="userSpaceOnUse"
       x1="60.001499"
       y1="94"
       x2="60.001499"
       y2="26.0005"
       gradientTransform="translate(145.71379,-238.21429)">
      <stop
         offset="0.2959"
         style="stop-color:#FFFFFF"
         id="stop23" />
      <stop
         offset="1"
         style="stop-color:#4A4A55"
         id="stop25" />
    </linearGradient>
    <linearGradient
       inkscape:collect="always"
       xlink:href="#XMLID_26_"
       id="linearGradient2900"
       gradientUnits="userSpaceOnUse"
       gradientTransform="translate(145.71379,-238.21429)"
       x1="60.001499"
       y1="92"
       x2="60.001499"
       y2="28.0005" />
    <linearGradient
       id="XMLID_26_"
       gradientUnits="userSpaceOnUse"
       x1="60.001499"
       y1="92"
       x2="60.001499"
       y2="28.0005"
       gradientTransform="translate(145.71379,-238.21429)">
      <stop
         offset="0.1953"
         style="stop-color:#E9E9F0"
         id="stop30" />
      <stop
         offset="0.2597"
         style="stop-color:#DADAE2"
         id="stop32" />
      <stop
         offset="0.461"
         style="stop-color:#B1B1BB"
         id="stop34" />
      <stop
         offset="0.6437"
         style="stop-color:#93939F"
         id="stop36" />
      <stop
         offset="0.7999"
         style="stop-color:#81818E"
         id="stop38" />
      <stop
         offset="0.9112"
         style="stop-color:#7A7A88"
         id="stop40" />
      <stop
         offset="1"
         style="stop-color:#696975"
         id="stop42" />
    </linearGradient>
    <linearGradient
       inkscape:collect="always"
       xlink:href="#XMLID_27_"
       id="linearGradient2902"
       gradientUnits="userSpaceOnUse"
       gradientTransform="translate(145.71379,-238.21429)"
       x1="60.001499"
       y1="86"
       x2="60.001499"
       y2="34.0005" />
    <linearGradient
       id="XMLID_27_"
       gradientUnits="userSpaceOnUse"
       x1="60.001499"
       y1="86"
       x2="60.001499"
       y2="34.0005"
       gradientTransform="translate(145.71379,-238.21429)">
      <stop
         offset="0"
         style="stop-color:#BBBBBB"
         id="stop47" />
      <stop
         offset="1"
         style="stop-color:#555555"
         id="stop49" />
    </linearGradient>
  </defs>
  <sodipodi:namedview
     id="base"
     pagecolor="#ffffff"
     bordercolor="#666666"
     borderopacity="1.0"
     inkscape:pageopacity="0.0"
     inkscape:pageshadow="2"
     inkscape:zoom="1.4628906"
     inkscape:cx="-159.68984"
     inkscape:cy="67.725377"
     inkscape:document-units="px"
     inkscape:current-layer="layer1"
     showgrid="true"
     inkscape:window-width="1409"
     inkscape:window-height="911"
     inkscape:window-x="-2"
     inkscape:window-y="0"
     inkscape:window-maximized="0"
     showguides="true"
     inkscape:guide-bbox="true">
    <sodipodi:guide
       orientation="-0.81915204,0.57357644"
       position="46.861514,63.46388"
       id="guide4003" />
    <sodipodi:guide
       orientation="-0.81915204,0.57357644"
       position="63.860831,39.186339"
       id="guide4005" />
    <sodipodi:guide
       orientation="0.81915204,0.57357644"
       position="80.066245,65.8739"
       id="guide4007" />
    <sodipodi:guide
       orientation="0.81915204,0.57357644"
       position="46.861514,63.46388"
       id="guide4009" />
    <sodipodi:guide
       orientation="0,1"
       position="72.710059,126.10651"
       id="guide4011" />
    <sodipodi:guide
       orientation="0,1"
       position="67.597633,2.0828402"
       id="guide4013" />
    <sodipodi:guide
       orientation="1,0"
       position="3.8820467,2.0828402"
       id="guide4015" />
    <sodipodi:guide
       orientation="1,0"
       position="124.73323,2.0828402"
       id="guide4017" />
    <sodipodi:guide
       orientation="-0.81915204,0.57357644"
       position="84.350726,56.501597"
       id="guide4019" />
    <sodipodi:guide
       orientation="0.81915204,0.57357644"
       position="82.476265,74.175083"
       id="guide4021" />
  </sodipodi:namedview>
  <metadata
     id="metadata7">
    <rdf:RDF>
      <cc:Work
         rdf:about="">
        <dc:format>image/svg+xml</dc:format>
        <dc:type
           rdf:resource="http://purl.org/dc/dcmitype/StillImage" />
        <dc:title></dc:title>
      </cc:Work>
    </rdf:RDF>
  </metadata>
  <g
     inkscape:label="Layer 1"
     inkscape:groupmode="layer"
     id="layer1"
     transform="translate(0,-924.36218)">
    <path
       style="fill:#231f20;stroke:none;fill-opacity:1"
       d="m 77.963925,1004.9364 -9.858444,14.0793 20.705555,31.4167 36.009414,-0.1169 -20.3916,-29.1222 -18.924073,-27.02631 z"
       id="path4131-1"
       inkscape:connector-curvature="0"
       sodipodi:nodetypes="ccccccc" />
    <path
       style="fill:#176fc1;stroke:none;fill-opacity:1"
       d="m 37.937097,1050.3155 43.441677,-62.04106 -43.400633,-61.98253 -34.7985926,0 43.7526146,62.48521 -43.0896957,61.53838 z"
       id="path4131"
       inkscape:connector-curvature="0"
       sodipodi:nodetypes="ccccccc" />
    <path
       style="fill:#231f20;stroke:none;fill-opacity:1"
       d="m 79.800055,941.8369 -11.451407,16.35432 17.047315,24.34609 39.383437,-56.24539 -16.90051,0 -17.194113,0 z"
       id="path4131-1-1"
       inkscape:connector-curvature="0"
       sodipodi:nodetypes="ccccccc" />
    <g
       id="g2876"
       transform="matrix(0.64999461,0,0,0.65,-47.772491,1126.4686)">
      <path
         inkscape:connector-curvature="0"
         style="filter:url(#filter2826)"
         id="path6"
         d="m 265.71479,-171.21229 0,-12.002 -12.439,-0.415 c -0.552,-4.127 -1.622,-8.089 -3.153,-11.816 l 10.555,-6.572 -6,-10.394 -10.981,5.861 c -2.503,-3.236 -5.408,-6.142 -8.645,-8.645 l 5.861,-10.981 -10.393,-5.999 -6.572,10.555 c -3.728,-1.532 -7.689,-2.603 -11.817,-3.155 l -0.416,-12.439 -12,0 -0.415,12.439 c -4.128,0.552 -8.09,1.623 -11.817,3.154 l -6.572,-10.554 -10.393,6 5.861,10.981 c -3.236,2.503 -6.142,5.409 -8.646,8.646 l -10.981,-5.861 -6,10.392 10.556,6.573 c -1.532,3.727 -2.603,7.689 -3.154,11.817 l -12.439,0.413 -0.001,12 12.44,0.415 c 0.552,4.128 1.623,8.09 3.154,11.817 l -10.555,6.573 5.999,10.393 10.983,-5.862 c 2.503,3.236 5.409,6.143 8.646,8.646 l -5.862,10.982 10.392,6 6.573,-10.557 c 3.727,1.531 7.689,2.603 11.817,3.154 l 0.414,12.439 12,0 0.415,-12.439 c 4.128,-0.552 8.09,-1.622 11.816,-3.154 l 6.572,10.556 10.393,-6 -5.861,-10.983 c 3.235,-2.503 6.142,-5.409 8.645,-8.645 l 10.981,5.861 6.001,-10.393 -10.556,-6.572 c 1.531,-3.727 2.603,-7.688 3.154,-11.816 l 12.44,-0.413 z m -60,23.998 c -16.542,0 -30,-13.458 -30,-30 0,-16.542 13.458,-30 30,-30 16.542,0 30,13.458 30,30 0,16.542 -13.458,30 -30,30 z" />
      <path
         inkscape:connector-curvature="0"
         style="fill:url(#radialGradient2894)"
         id="path13"
         d="m 265.71479,-172.21229 0,-12.002 -12.439,-0.415 c -0.552,-4.127 -1.622,-8.089 -3.153,-11.816 l 10.555,-6.572 -6,-10.394 -10.981,5.861 c -2.503,-3.236 -5.408,-6.142 -8.645,-8.645 l 5.861,-10.981 -10.393,-5.999 -6.572,10.555 c -3.728,-1.532 -7.689,-2.603 -11.817,-3.155 l -0.416,-12.439 -12,0 -0.415,12.439 c -4.128,0.552 -8.09,1.623 -11.817,3.154 l -6.572,-10.554 -10.393,6 5.861,10.981 c -3.236,2.503 -6.142,5.409 -8.646,8.646 l -10.981,-5.861 -6,10.392 10.556,6.573 c -1.532,3.727 -2.603,7.689 -3.154,11.817 l -12.439,0.413 -0.001,12 12.44,0.415 c 0.552,4.128 1.623,8.09 3.154,11.817 l -10.555,6.573 5.999,10.393 10.983,-5.862 c 2.503,3.236 5.409,6.143 8.646,8.646 l -5.862,10.982 10.392,6 6.573,-10.557 c 3.727,1.531 7.689,2.603 11.817,3.154 l 0.414,12.439 12,0 0.415,-12.439 c 4.128,-0.552 8.09,-1.622 11.816,-3.154 l 6.572,10.556 10.393,-6 -5.861,-10.983 c 3.235,-2.503 6.142,-5.409 8.645,-8.645 l 10.981,5.861 6.001,-10.393 -10.556,-6.572 c 1.531,-3.727 2.603,-7.688 3.154,-11.816 l 12.44,-0.413 z m -60,23.998 c -16.542,0 -30,-13.458 -30,-30 0,-16.542 13.458,-30 30,-30 16.542,0 30,13.458 30,30 0,16.542 -13.458,30 -30,30 z" />
      <path
         inkscape:connector-curvature="0"
         style="fill:url(#linearGradient2896)"
         id="path20"
         d="m 200.68179,-237.21429 c -0.055,1.645 -0.382,11.473 -0.382,11.473 -0.016,0.488 -0.383,0.893 -0.867,0.958 -3.989,0.533 -7.881,1.572 -11.569,3.088 -0.452,0.186 -0.972,0.018 -1.229,-0.396 0,0 -5.191,-8.338 -6.061,-9.734 -1.292,0.746 -7.425,4.287 -8.717,5.033 0.775,1.452 5.406,10.128 5.406,10.128 0.08,0.149 0.118,0.311 0.118,0.47 0,0.301 -0.136,0.597 -0.388,0.792 -3.167,2.45 -6.016,5.299 -8.466,8.466 -0.298,0.386 -0.832,0.5 -1.262,0.271 0,0 -8.677,-4.631 -10.128,-5.406 -0.746,1.292 -4.287,7.425 -5.033,8.717 1.396,0.87 9.734,6.061 9.734,6.061 0.301,0.188 0.472,0.513 0.472,0.85 0,0.127 -0.024,0.256 -0.075,0.38 -1.517,3.689 -2.556,7.582 -3.088,11.569 -0.064,0.484 -0.47,0.851 -0.958,0.867 0,0 -9.828,0.328 -11.473,0.382 0,0.994 0,2.289 0,3.171 8.88,1.789 18.332,3.162 28.128,4.095 -0.06,-1.024 -0.129,-2.235 -0.129,-2.235 0,-17.093 13.907,-31 31,-31 17.094,0 31,13.907 31,31 0,0 -0.07,1.223 -0.129,2.251 9.789,-0.925 19.24,-2.292 28.129,-4.074 0,-0.887 0,-2.208 0,-3.209 -1.645,-0.055 -11.473,-0.382 -11.473,-0.382 -0.488,-0.016 -0.894,-0.383 -0.958,-0.867 -0.533,-3.988 -1.572,-7.88 -3.087,-11.568 -0.051,-0.124 -0.075,-0.252 -0.075,-0.379 0,-0.337 0.171,-0.662 0.472,-0.85 0,0 8.337,-5.191 9.733,-6.061 -0.746,-1.292 -4.287,-7.426 -5.033,-8.718 -1.451,0.774 -10.128,5.406 -10.128,5.406 -0.43,0.229 -0.963,0.115 -1.262,-0.271 -2.45,-3.168 -5.299,-6.017 -8.465,-8.466 -0.253,-0.195 -0.389,-0.49 -0.389,-0.792 0,-0.16 0.038,-0.321 0.118,-0.47 0,0 4.631,-8.676 5.405,-10.128 -1.292,-0.746 -7.425,-4.288 -8.717,-5.034 -0.87,1.396 -6.062,9.734 -6.062,9.734 -0.258,0.414 -0.777,0.582 -1.229,0.396 -3.689,-1.516 -7.582,-2.555 -11.57,-3.088 -0.483,-0.065 -0.851,-0.47 -0.866,-0.958 0,0 -0.328,-9.828 -0.383,-11.473 -1.49,0.001 -8.572,0.001 -10.064,0.001 z" />
      <path
         inkscape:connector-curvature="0"
         style="fill:url(#linearGradient2898)"
         id="path27"
         d="m 205.71479,-212.21429 c -18.777,0 -34,15.223 -34,34 0,18.778 15.223,34 34,34 18.778,0 34,-15.222 34,-34 0,-18.777 -15.222,-34 -34,-34 z m 0,59 c -13.785,0 -25,-11.215 -25,-25 0,-13.785 11.215,-25 25,-25 13.785,0 25,11.215 25,25 0,13.785 -11.215,25 -25,25 z" />
      <path
         inkscape:connector-curvature="0"
         style="fill:url(#linearGradient2900)"
         id="path44"
         d="m 205.71479,-210.21429 c -17.645,0 -32,14.355 -32,32 0,17.645 14.355,32 32,32 17.645,0 32,-14.355 32,-32 0,-17.645 -14.355,-32 -32,-32 z m 0,57 c -13.785,0 -25,-11.215 -25,-25 0,-13.785 11.215,-25 25,-25 13.785,0 25,11.215 25,25 0,13.785 -11.215,25 -25,25 z" />
      <path
         inkscape:connector-curvature="0"
         style="fill:url(#linearGradient2902)"
         id="path51"
         d="m 205.71479,-204.21429 c -14.336,0 -26,11.664 -26,26 0,14.337 11.664,26 26,26 14.337,0 26,-11.663 26,-26 0,-14.336 -11.663,-26 -26,-26 z m 0,50 c -13.233,0 -24,-10.767 -24,-24 0,-13.233 10.767,-24 24,-24 13.233,0 24,10.767 24,24 0,13.233 -10.767,24 -24,24 z" />
      <path
         inkscape:connector-curvature="0"
         style="fill:#ffffff"
         id="path53"
         d="m 161.00579,-159.79329 -10.253,6.384 0.425,0.735 10.131,-6.308 c -0.11,-0.266 -0.199,-0.543 -0.303,-0.811 z" />
      <path
         inkscape:connector-curvature="0"
         style="fill:#ffffff"
         id="path55"
         d="m 180.91079,-232.17529 6.572,10.555 c 3.727,-1.532 7.689,-2.603 11.817,-3.154 l 0.415,-12.44 12,0 0.415,12.439 c 4.128,0.552 8.09,1.623 11.817,3.155 l 6.572,-10.555 9.984,5.766 0.408,-0.765 -10.391,-6.001 -6.572,10.555 c -3.728,-1.532 -7.689,-2.603 -11.817,-3.155 l -0.416,-12.439 -12,0 -0.415,12.439 c -4.128,0.552 -8.09,1.623 -11.817,3.154 l -6.572,-10.554 -10.393,6 0.408,0.765 9.985,-5.765 z" />
      <path
         inkscape:connector-curvature="0"
         style="fill:#ffffff"
         id="path57"
         d="m 235.42079,-215.88729 -0.37,0.694 c 3.236,2.503 6.142,5.409 8.645,8.645 l 10.981,-5.861 5.575,9.658 0.425,-0.265 -6,-10.394 -10.981,5.861 c -2.406,-3.108 -5.19,-5.903 -8.275,-8.338 z" />
      <path
         inkscape:connector-curvature="0"
         style="fill:#ffffff"
         id="path59"
         d="m 176.00979,-139.53929 -5.491,10.288 0.408,0.235 5.454,-10.218 c -0.127,-0.097 -0.245,-0.207 -0.371,-0.305 z" />
      <path
         inkscape:connector-curvature="0"
         style="opacity:0.5;fill:#ffffff"
         id="path61"
         d="m 249.69579,-176.83029 c -0.394,23.923 -19.966,43.267 -43.981,43.267 -24.016,0 -43.587,-19.344 -43.981,-43.267 -0.004,0.244 -0.019,0.487 -0.019,0.732 0,24.262 19.738,44 44,44 24.262,0 44,-19.738 44,-44 0,-0.245 -0.015,-0.488 -0.019,-0.732 z" />
      <path
         inkscape:connector-curvature="0"
         style="fill:#ffffff"
         id="path63"
         d="m 253.27579,-184.62829 c -0.513,-3.833 -1.489,-7.514 -2.85,-11.005 l -0.304,0.189 c 1.531,3.727 2.602,7.688 3.153,11.816 l 12.44,0.414 0,-1 -12.439,-0.414 z" />
      <path
         inkscape:connector-curvature="0"
         style="fill:#ffffff"
         id="path65"
         d="m 250.12079,-158.98229 10.131,6.308 0.425,-0.735 -10.252,-6.384 c -0.106,0.268 -0.194,0.545 -0.304,0.811 z" />
      <path
         inkscape:connector-curvature="0"
         style="fill:#ffffff"
         id="path67"
         d="m 156.75279,-212.41029 10.981,5.861 c 2.503,-3.236 5.409,-6.142 8.646,-8.646 l -0.371,-0.694 c -3.084,2.435 -5.87,5.23 -8.275,8.339 l -10.981,-5.861 -6,10.392 0.425,0.265 5.575,-9.656 z" />
      <path
         inkscape:connector-curvature="0"
         style="fill:#ffffff"
         id="path69"
         d="m 235.04979,-139.23429 5.453,10.217 0.408,-0.235 -5.491,-10.287 c -0.125,0.098 -0.243,0.208 -0.37,0.305 z" />
      <path
         inkscape:connector-curvature="0"
         style="fill:#ffffff"
         id="path71"
         d="m 145.71479,-183.21429 12.439,-0.415 c 0.551,-4.128 1.623,-8.09 3.154,-11.817 l -0.303,-0.189 c -1.361,3.491 -2.339,7.173 -2.851,11.006 l -12.439,0.415 -0.001,12 0,0 0.001,-11 z" />
    </g>
  </g>
</svg>
